<svg width="36" height="36" viewBox="0 0 36 36" fill="none" xmlns="http://www.w3.org/2000/svg">
<rect x="0.5" y="0.5" width="35" height="35" rx="5.5" fill="#2A2A2A" fill-opacity="0.22" stroke="#B8B8B8"/>
<path d="M18.1053 10H18.8947C18.9649 10 19 10.0556 19 10.1667V24.8333C19 24.9444 18.9649 25 18.8947 25H18.1053C18.0351 25 18 24.9444 18 24.8333V10.1667C18 10.0556 18.0351 10 18.1053 10Z" fill="white"/>
<path d="M11.1744 17H25.8256C25.9419 17 26 17.0351 26 17.1053V17.8947C26 17.9649 25.9419 18 25.8256 18H11.1744C11.0581 18 11 17.9649 11 17.8947V17.1053C11 17.0351 11.0581 17 11.1744 17Z" fill="white"/>
</svg>
