<svg width="36" height="36" viewBox="0 0 36 36" fill="none" xmlns="http://www.w3.org/2000/svg">
<rect x="0.5" y="0.5" width="35" height="35" rx="5.5" fill="#2A2A2A" fill-opacity="0.22" stroke="#B8B8B8"/>
<path d="M19.7113 15.2006L19.6509 15.5H19.9564H24.5455C25.2002 15.5 25.75 16.0558 25.75 16.75V18.25C25.75 18.4113 25.7204 18.5602 25.6658 18.7053L23.4709 23.9891L23.4709 23.9891L23.47 23.9913C23.2878 24.4423 22.8597 24.75 22.3636 24.75H15.8182C15.1634 24.75 14.6136 24.1942 14.6136 23.5V16C14.6136 15.653 14.7478 15.3417 14.9698 15.119L14.9698 15.119L14.9723 15.1164L19.5792 10.3584L20.1696 10.9615C20.1698 10.9617 20.1699 10.9618 20.1701 10.962C20.3199 11.1168 20.4162 11.3353 20.419 11.5719L20.3995 11.7864L19.7113 15.2006ZM12.6591 16.25V24.75H10.25V16.25H12.6591Z" stroke="white" stroke-width="0.5"/>
</svg>
