<svg width="36" height="36" viewBox="0 0 36 36" fill="none" xmlns="http://www.w3.org/2000/svg">
<rect x="0.5" y="0.5" width="35" height="35" rx="5.5" fill="#2A2A2A" fill-opacity="0.22" stroke="#B8B8B8"/>
<path d="M12.5266 13.9556L12.5266 13.9557L12.5276 13.9533C12.7054 13.5427 13.1303 13.25 13.6364 13.25H20.1818C20.8529 13.25 21.3864 13.777 21.3864 14.4V21.4C21.3864 21.7141 21.2562 21.9999 21.0412 22.2069L16.421 26.6538L15.8243 26.0849C15.8242 26.0847 15.824 26.0846 15.8239 26.0845C15.6761 25.942 15.5842 25.7445 15.581 25.5343L15.6002 25.3376L16.288 22.1528L16.3534 21.85H16.0437H11.4546C10.7835 21.85 10.25 21.323 10.25 20.7V19.3C10.25 19.1542 10.2786 19.0192 10.332 18.8868L12.5266 13.9556ZM25.75 21.15H23.3409V13.25H25.75V21.15Z" fill="white" stroke="white" stroke-width="0.5"/>
</svg>
