<svg width="38" height="38" viewBox="0 0 38 38" fill="none" xmlns="http://www.w3.org/2000/svg">
<circle cx="18.67" cy="18.67" r="18.17" fill="#2A2A2A" fill-opacity="0.22" stroke="#B8B8B8"/>
<path d="M14.333 22L18.2 24.9C18.2743 24.9557 18.3626 24.9896 18.4551 24.998C18.5476 25.0063 18.6406 24.9887 18.7236 24.9472C18.8067 24.9057 18.8765 24.8418 18.9253 24.7629C18.9741 24.6839 19 24.5928 19 24.5V12.5C19 12.4072 18.9742 12.3163 18.9254 12.2373C18.8767 12.1584 18.8069 12.0946 18.724 12.053L14.333 22ZM14.333 22H12.5C12.1022 22 11.7206 21.842 11.4393 21.5607C11.158 21.2793 11 20.8978 11 20.5V16.5C11 16.1022 11.158 15.7206 11.4393 15.4393C11.7206 15.158 12.1022 15 12.5 15H14.333V22ZM18.612 12.2765L18.612 12.2765C18.6535 12.2973 18.6883 12.3292 18.7127 12.3687C18.7371 12.4081 18.75 12.4536 18.75 12.5V24.5C18.75 24.5464 18.7371 24.5919 18.7127 24.6314C18.6883 24.6709 18.6533 24.7028 18.6118 24.7236C18.5703 24.7444 18.5238 24.7531 18.4775 24.749C18.4313 24.7448 18.3871 24.7278 18.35 24.7L18.35 24.7L14.483 21.8L14.4163 21.75H14.333H12.5C12.1685 21.75 11.8505 21.6183 11.6161 21.3839C11.3817 21.1495 11.25 20.8315 11.25 20.5V16.5C11.25 16.1685 11.3817 15.8505 11.6161 15.6161C11.8505 15.3817 12.1685 15.25 12.5 15.25H14.333H14.4163L14.483 15.2L18.35 12.3L18.2001 12.1002L18.35 12.3C18.3872 12.2721 18.4314 12.2552 18.4777 12.251C18.5239 12.2468 18.5705 12.2557 18.612 12.2765ZM18.25 13.5V13L17.85 13.3L14.65 15.7C14.6067 15.7324 14.5541 15.75 14.5 15.75H12.5C12.3011 15.75 12.1103 15.829 11.9697 15.9697C11.829 16.1103 11.75 16.3011 11.75 16.5V20.5C11.75 20.6989 11.829 20.8897 11.9697 21.0303C12.1103 21.171 12.3011 21.25 12.5 21.25H14.5C14.5541 21.25 14.6067 21.2675 14.65 21.3L17.85 23.7L18.25 24V23.5V13.5ZM25.677 16.3225L25.6774 16.323C25.7007 16.3462 25.7192 16.3738 25.7318 16.4042C25.7444 16.4345 25.7509 16.4671 25.7509 16.5C25.7509 16.5329 25.7444 16.5654 25.7318 16.5958C25.7192 16.6262 25.7007 16.6538 25.6774 16.677L25.6773 16.6772L24.0303 18.3232L23.8533 18.5L24.0303 18.6768L25.6772 20.3228C25.6772 20.3228 25.6772 20.3228 25.6773 20.3228C25.6773 20.3228 25.6773 20.3228 25.6773 20.3228C25.7242 20.3698 25.7506 20.4335 25.7506 20.5C25.7506 20.5665 25.7242 20.6302 25.6772 20.6772C25.6302 20.7242 25.5665 20.7506 25.5 20.7506C25.4335 20.7506 25.3698 20.7242 25.3228 20.6772L23.6768 19.0303L23.5 18.8533L23.3232 19.0303L21.6772 20.6772C21.6302 20.7242 21.5665 20.7506 21.5 20.7506C21.4335 20.7506 21.3698 20.7242 21.3228 20.6772C21.2758 20.6302 21.2494 20.5665 21.2494 20.5C21.2494 20.4335 21.2758 20.3698 21.3227 20.3228C21.3227 20.3228 21.3228 20.3228 21.3228 20.3228L22.9697 18.6768L23.1467 18.5L22.9697 18.3232L21.3228 16.6772C21.2758 16.6302 21.2494 16.5665 21.2494 16.5C21.2494 16.4335 21.2758 16.3698 21.3228 16.3228C21.3698 16.2758 21.4335 16.2494 21.5 16.2494C21.5664 16.2494 21.6302 16.2757 21.6772 16.3227C21.6772 16.3227 21.6772 16.3227 21.6772 16.3228L23.3232 17.9697L23.5 18.1467L23.6768 17.9697L25.3228 16.3227L25.323 16.3225C25.3462 16.2993 25.3738 16.2808 25.4042 16.2682C25.4346 16.2556 25.4671 16.2491 25.5 16.2491C25.5329 16.2491 25.5654 16.2556 25.5958 16.2682C25.6262 16.2808 25.6538 16.2993 25.677 16.3225Z" stroke="white" stroke-width="0.5"/>
</svg>
