<svg width="38" height="38" viewBox="0 0 38 38" fill="none" xmlns="http://www.w3.org/2000/svg">
<circle cx="18.67" cy="18.67" r="18.17" fill="#2A2A2A" fill-opacity="0.22" stroke="#B8B8B8"/>
<path d="M19.4695 12.0511L19.4696 12.0509C19.4691 12.0507 19.4685 12.0504 19.468 12.0501C19.3908 12.0127 19.3054 11.9958 19.22 12.0009V12.0501V12.0511H19.4695ZM19.4695 12.0511H19.47L19.4704 12.0503C19.4709 12.0506 19.4715 12.0509 19.472 12.0511C19.5553 12.0924 19.6254 12.1561 19.6745 12.235C19.693 12.2646 19.7082 12.296 19.72 12.3285V12.4523L19.4993 12.344L19.3787 12.2848C19.3727 12.2812 19.3666 12.2779 19.3603 12.2748C19.3602 12.2747 19.3601 12.2747 19.36 12.2746L19.4695 12.0511ZM24.678 12.4301L24.4871 12.5915C25.8837 14.2436 26.65 16.3369 26.65 18.5001C26.65 20.6632 25.8838 22.7564 24.4874 24.4084C24.4616 24.4387 24.4249 24.4575 24.3852 24.4608C24.3455 24.464 24.3062 24.4513 24.2758 24.4256C24.2455 24.3998 24.2266 24.363 24.2234 24.3233C24.2201 24.2837 24.2328 24.2443 24.2586 24.214L24.259 24.2135C25.609 22.6159 26.3496 20.5918 26.3496 18.5001C26.3496 16.4085 25.609 14.3844 24.259 12.7868L24.2586 12.7863C24.2328 12.756 24.2201 12.7166 24.2234 12.6769C24.2266 12.6372 24.2455 12.6005 24.2758 12.5747C24.3062 12.5489 24.3455 12.5363 24.3852 12.5395C24.4249 12.5427 24.4617 12.5616 24.4874 12.592L24.678 12.4301ZM24.678 12.4301C26.1128 14.1273 26.9 16.2778 26.9 18.5001C26.9 20.7225 26.1128 22.873 24.678 24.5701L24.068 12.9481C23.9993 12.8672 23.9656 12.7624 23.9742 12.6566C23.9828 12.5508 24.0331 12.4528 24.114 12.3841C24.1949 12.3154 24.2998 12.2817 24.4055 12.2903C24.5113 12.299 24.6093 12.3492 24.678 12.4301ZM19.0964 12.3026L19.0965 12.3025L18.943 12.1051L19.0964 12.3026ZM19.75 12.5001H19.75H19.75ZM19 13.5221V13.0109L18.5965 13.3248L15.5467 15.6976C15.5467 15.6977 15.5466 15.6977 15.5466 15.6978C15.5027 15.7318 15.4487 15.7502 15.3932 15.7501H15.393H13.5C13.3011 15.7501 13.1103 15.8292 12.9697 15.9698C12.829 16.1105 12.75 16.3012 12.75 16.5001V20.5001C12.75 20.699 12.829 20.8898 12.9697 21.0305C13.1103 21.1711 13.3011 21.2501 13.5 21.2501H15.393H15.3932C15.4488 21.2501 15.5027 21.2685 15.5466 21.3025C15.5466 21.3026 15.5467 21.3026 15.5467 21.3026L18.5965 23.6754L19 23.9894V23.4781V13.5221ZM22.4166 15.0562L22.4168 15.0561C22.4332 15.0451 22.4516 15.0375 22.4709 15.0337C22.4902 15.0299 22.5101 15.0299 22.5295 15.0337C22.5488 15.0376 22.5672 15.0453 22.5836 15.0562C22.5999 15.0672 22.614 15.0813 22.6249 15.0977C23.2935 16.1063 23.6501 17.2895 23.6501 18.4996C23.6501 19.7089 23.294 20.8914 22.6263 21.8995C22.6039 21.9311 22.5702 21.9528 22.5322 21.9601C22.4935 21.9675 22.4535 21.9595 22.4208 21.9377C22.388 21.9159 22.3652 21.8822 22.3571 21.8437C22.3491 21.8057 22.3562 21.766 22.3768 21.7332C23.0115 20.7744 23.3499 19.65 23.3499 18.5001C23.3499 17.3495 23.011 16.2243 22.3754 15.265L22.3749 15.2643C22.364 15.248 22.3564 15.2296 22.3526 15.2102C22.3487 15.1909 22.3487 15.171 22.3526 15.1517C22.3565 15.1323 22.3641 15.114 22.3751 15.0976C22.3861 15.0812 22.4002 15.0671 22.4166 15.0562Z" stroke="white" stroke-width="0.5"/>
</svg>
