<svg width="25" height="45" viewBox="0 0 25 45" fill="none" xmlns="http://www.w3.org/2000/svg">
<path fill-rule="evenodd" clip-rule="evenodd" d="M0 0C0 0 -5.50646e-07 44.9998 0.0360514 44.9998C0.0360514 44.9998 0.829193 44.9282 1.76654 44.8567C2.70389 44.7494 3.96571 44.6421 4.61465 44.5705C5.58805 44.499 8.5443 44.3201 8.86877 44.2843C8.97693 44.2843 9.01298 24.1811 9.01298 24.1811L0 0Z" fill="#B1060F"/>
<path fill-rule="evenodd" clip-rule="evenodd" d="M9.01298 30.4052V25.2542L0 0L9.01298 30.4052Z" fill="black"/>
<path fill-rule="evenodd" clip-rule="evenodd" d="M16.1152 0.0360107L16.0792 20.9977L24.984 45H24.9119H24.984C25.02 44.9642 24.984 0.0360107 24.984 0.0360107H16.1152Z" fill="#B1060F"/>
<path fill-rule="evenodd" clip-rule="evenodd" d="M16.0792 14.8807V19.9244L24.5874 43.9267L16.0792 14.8807Z" fill="black"/>
<path fill-rule="evenodd" clip-rule="evenodd" d="M0 0C0 0 15.7547 44.2486 15.7907 44.2486C15.7907 44.2486 24.9479 44.9998 24.984 44.9998L8.97693 0H0Z" fill="#E50914"/>
</svg>
