<svg width="152" height="152" viewBox="0 0 152 152" fill="none" xmlns="http://www.w3.org/2000/svg">
<rect x="140.938" y="152" width="100" height="10.9952" transform="rotate(-90 140.938 152)" fill="#75040A"/>
<rect width="99.956" height="11" fill="#96060D"/>
<path fill-rule="evenodd" clip-rule="evenodd" d="M152 152L0.066864 0H100.472L152 51.5509V152Z" fill="#E50914"/>
<path fill-rule="evenodd" clip-rule="evenodd" d="M152 152L0.066864 0H100.472L152 51.5509V152Z" fill="url(#paint0_linear)"/>
<path d="M101.702 35.1577L108.312 28.1964L111.074 30.8212L113.099 28.6893L105.162 21.1456L103.137 23.2775L105.888 25.8919L99.2772 32.8532L101.702 35.1577ZM109.087 42.5913C112.077 45.4332 115.293 45.0961 118.124 42.1158C120.954 39.1355 121.126 35.9049 118.136 33.0631C115.146 30.2212 111.93 30.5583 109.099 33.5386C106.269 36.5189 106.097 39.7495 109.087 42.5913ZM116.111 35.195C117.383 36.404 117.455 37.9622 115.699 39.8113C113.943 41.6604 112.384 41.6685 111.112 40.4594C109.84 39.2504 109.768 37.6922 111.524 35.8431C113.28 33.994 114.839 33.9859 116.111 35.195ZM116.884 49.5881L119.053 47.3039L120.489 48.668C123.37 51.4064 125.749 51.5153 127.907 49.242C130.066 46.9687 129.836 44.5974 126.955 41.8589L123.095 38.1904L114.46 47.2836L116.884 49.5881ZM121.078 45.172L123.495 42.6268L124.93 43.9908C126.039 45.0449 126.464 45.9042 125.483 46.9375C124.502 47.9708 123.622 47.5901 122.513 46.5361L121.078 45.172Z" fill="white"/>
<path d="M86.9455 59.0102L83.0532 55.3107L96.2744 41.3881L89.5117 34.9604L82.8533 36.7441L87.3763 41.043L78.204 50.7018L73.8985 46.6096L69.8495 50.8734L82.8965 63.274L86.9455 59.0102ZM106.69 68.5879C103.178 72.2861 100.386 72.6123 97.9502 70.2975C95.5147 67.9827 95.6974 65.1764 99.2093 61.4782C102.721 57.78 105.513 57.4538 107.949 59.7685C110.384 62.0833 110.201 64.8897 106.69 68.5879ZM111.539 73.1968C117.199 67.2362 117.76 60.9817 111.998 55.5047C106.235 50.0278 100.021 50.9086 94.3602 56.8693C88.6998 62.8299 88.1387 69.0843 93.9011 74.5613C99.6636 80.0383 105.878 79.1574 111.539 73.1968Z" fill="white"/>
<defs>
<linearGradient id="paint0_linear" x1="69.4695" y1="5.5" x2="124.987" y2="140.483" gradientUnits="userSpaceOnUse">
<stop stop-color="#EE1C26"/>
<stop offset="0.484375" stop-color="#E50914"/>
<stop offset="1" stop-color="#96060D"/>
</linearGradient>
</defs>
</svg>
