<svg width="14" height="25" viewBox="0 0 14 25" fill="none" xmlns="http://www.w3.org/2000/svg">
<path fill-rule="evenodd" clip-rule="evenodd" d="M0 0C0 0 -3.08362e-07 24.9999 0.0201888 24.9999C0.0201888 24.9999 0.464348 24.9601 0.989264 24.9204C1.51418 24.8608 2.2208 24.8011 2.5842 24.7614C3.12931 24.7217 4.78481 24.6223 4.96651 24.6024C5.02708 24.6024 5.04727 13.434 5.04727 13.434L0 0Z" fill="#B1060F"/>
<path fill-rule="evenodd" clip-rule="evenodd" d="M5.04727 16.8918V14.0301L0 0L5.04727 16.8918Z" fill="black"/>
<path fill-rule="evenodd" clip-rule="evenodd" d="M9.02452 0.0200043L9.00433 11.6654L13.991 25H13.9507H13.991C14.0112 24.9801 13.991 0.0200043 13.991 0.0200043H9.02452Z" fill="#B1060F"/>
<path fill-rule="evenodd" clip-rule="evenodd" d="M9.00433 8.26704V11.0691L13.769 24.4037L9.00433 8.26704Z" fill="black"/>
<path fill-rule="evenodd" clip-rule="evenodd" d="M0 0C0 0 8.82263 24.5825 8.84281 24.5825C8.84281 24.5825 13.9708 24.9999 13.991 24.9999L5.02708 0H0Z" fill="#E50914"/>
</svg>
