<svg width="360" height="177" viewBox="0 0 360 177" fill="none" xmlns="http://www.w3.org/2000/svg">
<line x1="51" y1="140.5" x2="360" y2="140.5" stroke="#777777"/>
<rect x="51" y="112" width="309" height="28" fill="#343434" fill-opacity="0.2"/>
<rect x="51" y="84" width="309" height="28" fill="#343434"/>
<rect x="51" y="56" width="309" height="28" fill="#343434" fill-opacity="0.2"/>
<rect x="51" width="309" height="28" fill="#343434" fill-opacity="0.2"/>
<rect x="51" y="28" width="309" height="28" fill="#343434"/>
<path d="M29.3729 126.084C27.6569 126.432 26.1209 126.54 24.5969 126.552V122.712H23.6249V127.38H24.4649C26.0729 127.38 27.6809 127.26 29.4929 126.9L29.3729 126.084ZM31.6289 129.552V128.76H24.5969V129.552H27.6089C27.5609 130.764 26.0009 131.784 24.1889 132.072L24.5729 132.828C26.1329 132.564 27.5249 131.772 28.1249 130.692C28.7249 131.772 30.1049 132.576 31.6649 132.84L32.0489 132.084C30.2609 131.784 28.6889 130.74 28.6409 129.552H31.6289ZM31.4489 124.752V122.112H30.4649V128.22H31.4489V125.568H33.0449V124.752H31.4489ZM38.996 122.364C36.668 122.364 35.216 123.12 35.216 124.404C35.216 125.676 36.668 126.432 38.996 126.432C41.324 126.432 42.776 125.676 42.776 124.404C42.776 123.12 41.324 122.364 38.996 122.364ZM38.996 123.144C40.7 123.144 41.768 123.612 41.768 124.404C41.768 125.196 40.7 125.664 38.996 125.664C37.292 125.664 36.224 125.196 36.224 124.404C36.224 123.612 37.292 123.144 38.996 123.144ZM35.336 129.204V132.744H42.68V129.204H35.336ZM41.72 129.984V131.952H36.296V129.984H41.72ZM34.136 127.356V128.148H43.868V127.356H34.136Z" fill="#9C9C9C"/>
<path d="M25.2209 97.616H30.7169V99.596H25.2209V97.616ZM28.4609 102.704V100.388H31.6769V94.892H30.7169V96.812H25.2209V94.892H24.2489V100.388H27.4649V102.704H23.0969V103.508H32.8529V102.704H28.4609ZM38.996 104.132C37.268 104.132 36.296 103.796 36.296 103.148C36.296 102.512 37.268 102.164 38.996 102.164C40.736 102.164 41.696 102.512 41.696 103.148C41.696 103.796 40.736 104.132 38.996 104.132ZM38.996 101.432C36.656 101.432 35.312 102.032 35.312 103.148C35.312 104.276 36.656 104.876 38.996 104.876C41.336 104.876 42.68 104.276 42.68 103.148C42.68 102.032 41.336 101.432 38.996 101.432ZM39.488 99.824V98.768H42.728V98H36.392V96.944H42.38V96.2H36.392V95.204H42.668V94.436H35.408V98.768H38.504V99.824H34.124V100.616H43.868V99.824H39.488Z" fill="#9C9C9C"/>
<path d="M26.7929 45.684H29.1449V47.952H26.7929V45.684ZM30.1169 45.684H31.7609V44.892H24.1769V45.684H25.8209V47.952H24.0809V48.744H31.8569V47.952H30.1169V45.684ZM28.4609 43.032V41.664H31.7369V40.872H25.4009V38.364H24.4169V41.664H27.4769V43.032H23.1089V43.824H32.8409V43.032H28.4609ZM38.996 38.364C36.668 38.364 35.216 39.12 35.216 40.404C35.216 41.676 36.668 42.432 38.996 42.432C41.324 42.432 42.776 41.676 42.776 40.404C42.776 39.12 41.324 38.364 38.996 38.364ZM38.996 39.144C40.7 39.144 41.768 39.612 41.768 40.404C41.768 41.196 40.7 41.664 38.996 41.664C37.292 41.664 36.224 41.196 36.224 40.404C36.224 39.612 37.292 39.144 38.996 39.144ZM35.336 45.204V48.744H42.68V45.204H35.336ZM41.72 45.984V47.952H36.296V45.984H41.72ZM34.136 43.356V44.148H43.868V43.356H34.136Z" fill="#9C9C9C"/>
<path d="M2.49788 67.972H6.51788V67.156H1.51388V74.224H2.36588C4.39388 74.224 5.80988 74.152 7.45388 73.84L7.34588 73.024C5.78588 73.3 4.40588 73.384 2.49788 73.384V67.972ZM11.1139 70.372H9.33788V66.124H8.35388V76.912H9.33788V71.188H11.1139V70.372ZM21.3849 71.38C19.5009 71.044 17.4489 69.46 17.4489 67.672V66.844H16.4169V67.672C16.4169 69.46 14.3769 71.044 12.4929 71.38L12.9009 72.196C14.5569 71.848 16.2369 70.732 16.9329 69.196C17.6289 70.732 19.3209 71.848 20.9649 72.196L21.3849 71.38ZM17.4249 74.68V72.064H16.4409V74.68H12.0969V75.484H21.8649V74.68H17.4249ZM26.832 73.684H29.184V75.952H26.832V73.684ZM30.156 73.684H31.8V72.892H24.216V73.684H25.86V75.952H24.12V76.744H31.896V75.952H30.156V73.684ZM28.5 71.032V69.664H31.776V68.872H25.44V66.364H24.456V69.664H27.516V71.032H23.148V71.824H32.88V71.032H28.5ZM39.0351 66.364C36.7071 66.364 35.2551 67.12 35.2551 68.404C35.2551 69.676 36.7071 70.432 39.0351 70.432C41.3631 70.432 42.8151 69.676 42.8151 68.404C42.8151 67.12 41.3631 66.364 39.0351 66.364ZM39.0351 67.144C40.7391 67.144 41.8071 67.612 41.8071 68.404C41.8071 69.196 40.7391 69.664 39.0351 69.664C37.3311 69.664 36.2631 69.196 36.2631 68.404C36.2631 67.612 37.3311 67.144 39.0351 67.144ZM35.3751 73.204V76.744H42.7191V73.204H35.3751ZM41.7591 73.984V75.952H36.3351V73.984H41.7591ZM34.1751 71.356V72.148H43.9071V71.356H34.1751Z" fill="#9C9C9C"/>
<path d="M2.36588 13.152H4.62188V18.216H2.36588V13.152ZM1.44188 18.996H5.53388V12.372H1.44188V18.996ZM9.26588 11.124V15.384H7.81388V11.364H6.88988V21.348H7.81388V16.188H9.26588V21.876H10.2019V11.124H9.26588ZM16.9449 12.348C18.5889 12.348 19.7049 12.96 19.7049 13.908C19.7049 14.868 18.5889 15.48 16.9449 15.48C15.3129 15.48 14.1969 14.868 14.1969 13.908C14.1969 12.96 15.3129 12.348 16.9449 12.348ZM16.9449 16.272C19.1889 16.272 20.7129 15.36 20.7129 13.908C20.7129 12.468 19.1889 11.556 16.9449 11.556C14.7129 11.556 13.1889 12.468 13.1889 13.908C13.1889 15.36 14.7129 16.272 16.9449 16.272ZM21.8409 17.292H12.0969V18.108H16.4529V21.9H17.4369V18.108H21.8409V17.292ZM26.832 18.684H29.184V20.952H26.832V18.684ZM30.156 18.684H31.8V17.892H24.216V18.684H25.86V20.952H24.12V21.744H31.896V20.952H30.156V18.684ZM28.5 16.032V14.664H31.776V13.872H25.44V11.364H24.456V14.664H27.516V16.032H23.148V16.824H32.88V16.032H28.5ZM39.0351 11.364C36.7071 11.364 35.2551 12.12 35.2551 13.404C35.2551 14.676 36.7071 15.432 39.0351 15.432C41.3631 15.432 42.8151 14.676 42.8151 13.404C42.8151 12.12 41.3631 11.364 39.0351 11.364ZM39.0351 12.144C40.7391 12.144 41.8071 12.612 41.8071 13.404C41.8071 14.196 40.7391 14.664 39.0351 14.664C37.3311 14.664 36.2631 14.196 36.2631 13.404C36.2631 12.612 37.3311 12.144 39.0351 12.144ZM35.3751 18.204V21.744H42.7191V18.204H35.3751ZM41.7591 18.984V20.952H36.3351V18.984H41.7591ZM34.1751 16.356V17.148H43.9071V16.356H34.1751Z" fill="#9C9C9C"/>
<path d="M64 152.15C64 150.418 65.4464 149 67.2143 149H90.7857C92.5536 149 94 150.418 94 152.15V172.1C94 173.832 92.5536 175.25 90.7857 175.25H67.2143C65.4464 175.25 64 173.832 64 172.1V152.15Z" fill="#353336"/>
<path d="M64.25 152.15C64.25 150.56 65.5797 149.25 67.2143 149.25H90.7857C92.4203 149.25 93.75 150.56 93.75 152.15V172.1C93.75 173.69 92.4203 175 90.7857 175H67.2143C65.5797 175 64.25 173.69 64.25 172.1V152.15Z" fill="#353336" stroke="#777777" stroke-width="0.5"/>
<path d="M84.8929 164.75C88.7391 164.75 91.8572 161.694 91.8572 157.925C91.8572 154.156 88.7391 151.1 84.8929 151.1C81.0466 151.1 77.9286 154.156 77.9286 157.925C77.9286 161.694 81.0466 164.75 84.8929 164.75Z" fill="#353336" stroke="white" stroke-width="2" stroke-miterlimit="10"/>
<path d="M79.9643 153.095L89.8214 162.755L79.9643 153.095Z" fill="#353336"/>
<path d="M79.9643 153.095L89.8214 162.755" stroke="white" stroke-width="3" stroke-miterlimit="10"/>
<path d="M68.875 167.69V168.32H68.0714V166.43H66.0357V165.695H70.8571V166.43H68.8214V167.69H68.875ZM68.9286 163.648C68.9821 163.805 69.0893 163.963 69.1964 164.12C69.3036 164.278 69.4643 164.383 69.625 164.488C69.7857 164.593 70 164.645 70.1607 164.75C70.375 164.803 70.5357 164.855 70.75 164.908C70.6964 164.96 70.6428 165.013 70.6428 165.065C70.5893 165.118 70.5893 165.17 70.5357 165.223C70.4821 165.275 70.4821 165.328 70.4286 165.38C70.375 165.433 70.375 165.485 70.3214 165.485C70.1607 165.433 70 165.433 69.8393 165.328C69.6786 165.275 69.5178 165.17 69.3571 165.118L68.875 164.803C68.7143 164.698 68.6071 164.54 68.5 164.383C68.3928 164.488 68.2857 164.645 68.1786 164.75C68.0714 164.855 67.9107 164.96 67.75 165.065C67.5893 165.17 67.4286 165.223 67.2678 165.328C67.1071 165.38 66.8928 165.433 66.7321 165.485C66.6786 165.433 66.6786 165.38 66.625 165.38C66.5714 165.328 66.5178 165.275 66.5178 165.223C66.4643 165.17 66.4107 165.118 66.4107 165.065C66.3571 165.013 66.3036 164.96 66.3036 164.908C66.7857 164.803 67.2143 164.645 67.5357 164.435C67.8571 164.225 68.0714 164.015 68.1786 163.7H66.7321V162.965H70.5357V163.7H68.9286V163.648Z" fill="white"/>
<path d="M74.6607 164.435C74.6607 164.697 74.6607 164.96 74.7143 165.17C74.7678 165.38 74.8214 165.59 74.875 165.747C74.9286 165.905 75.0357 166.062 75.1964 166.22C75.3036 166.377 75.4643 166.482 75.6786 166.64L75.4107 166.902C75.3571 167.007 75.25 167.06 75.1964 167.165C75.1428 167.112 75.0357 167.06 74.9821 166.955C74.875 166.902 74.8214 166.797 74.7143 166.692C74.6071 166.587 74.5536 166.482 74.5 166.377C74.4464 166.272 74.3393 166.167 74.2857 166.062L74.125 166.377C74.0714 166.482 73.9643 166.587 73.9107 166.692C73.8036 166.797 73.75 166.902 73.6428 167.007L73.375 167.27C73.3214 167.217 73.2678 167.217 73.2678 167.165C73.2143 167.112 73.1607 167.112 73.1071 167.06C73.0536 167.007 73 166.955 72.9464 166.955C72.8928 166.902 72.8393 166.85 72.7857 166.85C73 166.692 73.1607 166.587 73.3214 166.377C73.4821 166.22 73.5893 166.01 73.6964 165.8C73.75 165.642 73.8036 165.432 73.8571 165.222C73.9107 165.012 73.9107 164.75 73.9107 164.487V163.857H73.1071V163.122H75.4643V163.857H74.6607V164.435ZM75.5714 165.275H75.1428V164.487H75.8393V162.86H76.5893V168.005H75.8393V165.222H75.5714V165.275ZM77.6071 167.9V168.32H76.8571V162.86H77.6071V167.9Z" fill="white"/>
<path d="M67.0536 173.045C66.8929 172.992 66.7322 172.887 66.5714 172.73C66.4107 172.572 66.3036 172.362 66.25 172.152C66.1964 171.995 66.1429 171.837 66.1429 171.627C66.0893 171.417 66.0893 171.155 66.0893 170.892C66.0893 170.682 66.0893 170.472 66.1429 170.262C66.1964 170.052 66.1964 169.895 66.25 169.79C66.3572 169.58 66.4643 169.37 66.5714 169.212C66.7322 169.055 66.8929 168.897 67.0536 168.845L67.1607 169.055L66.8393 169.37C66.7322 169.475 66.6786 169.58 66.625 169.737C66.5714 169.895 66.5179 170.052 66.5179 170.262C66.5179 170.472 66.4643 170.682 66.4643 170.945V171.522C66.4643 171.68 66.5179 171.837 66.5179 171.995C66.5714 172.257 66.625 172.467 66.7322 172.625C66.8393 172.782 66.9464 172.887 67.0536 173.045Z" fill="white"/>
<path d="M69.9464 172.415V172.835H69.4643V171.522H68.6607V172.782H68.1786V171.522H67.3214V171.05H70.8036V171.522H69.9464V172.415ZM68.5 170.682C68.3393 170.63 68.1786 170.577 68.0714 170.472C67.9643 170.367 67.8571 170.315 67.8036 170.157C67.75 170.052 67.6964 169.947 67.6964 169.79C67.6964 169.685 67.75 169.527 67.8036 169.422C67.8571 169.317 67.9643 169.212 68.0714 169.107C68.1786 169.002 68.3393 168.95 68.5 168.897C68.6607 168.845 68.875 168.845 69.0893 168.845C69.3036 168.845 69.5178 168.845 69.6786 168.897C69.8393 168.95 70 169.002 70.1071 169.107C70.2143 169.212 70.3214 169.265 70.375 169.422C70.4286 169.527 70.4821 169.632 70.4821 169.79C70.4821 169.895 70.4286 170.052 70.375 170.157C70.3214 170.262 70.2143 170.367 70.1071 170.472C70 170.577 69.8393 170.63 69.6786 170.682C69.5178 170.735 69.3036 170.735 69.0893 170.735C68.875 170.787 68.7143 170.735 68.5 170.682ZM68.4464 170.21C68.6071 170.315 68.8214 170.367 69.0893 170.367C69.3571 170.367 69.5714 170.315 69.7321 170.21C69.8928 170.105 70 170 70 169.842C70 169.685 69.8928 169.58 69.7321 169.475C69.5714 169.37 69.3571 169.317 69.0893 169.317C68.8214 169.317 68.6071 169.37 68.4464 169.475C68.2857 169.58 68.1786 169.685 68.1786 169.842C68.1786 170 68.2857 170.157 68.4464 170.21Z" fill="white"/>
<path d="M71.5 170.052H71.1786V169.632H73.0536V170.052H71.5ZM71.3393 170.84C71.3929 170.735 71.4464 170.63 71.5 170.577C71.5536 170.472 71.6607 170.42 71.7679 170.367C71.875 170.315 71.9822 170.315 72.0893 170.315C72.1964 170.315 72.3572 170.315 72.4107 170.367C72.5179 170.42 72.625 170.472 72.6786 170.577C72.7322 170.682 72.7857 170.735 72.8393 170.84C72.8929 170.945 72.8929 171.05 72.8929 171.207C72.8929 171.47 72.8393 171.68 72.6786 171.837C72.5179 171.995 72.3036 172.1 72.0893 172.1C71.9822 172.1 71.8214 172.1 71.7679 172.047C71.6607 171.995 71.6072 171.942 71.5 171.837C71.4464 171.732 71.3929 171.68 71.3393 171.575C71.2857 171.47 71.2857 171.365 71.2857 171.207C71.2857 171.05 71.2857 170.945 71.3393 170.84ZM71.8214 169.422H71.6072V169.002H72.5714V169.422H71.8214ZM72.4107 170.84C72.3572 170.735 72.25 170.682 72.0893 170.682C71.9822 170.682 71.875 170.735 71.7679 170.84C71.7143 170.945 71.6607 171.05 71.6607 171.207C71.6607 171.365 71.7143 171.47 71.7679 171.575C71.8214 171.68 71.9286 171.732 72.0893 171.732C72.25 171.732 72.3572 171.68 72.4107 171.575C72.4643 171.47 72.5179 171.365 72.5179 171.207C72.5179 171.05 72.4643 170.945 72.4107 170.84ZM74.0179 170.42V168.845H74.5V172.835H74.0179V170.84H73.6429V172.625H73.1607V168.845H73.6429V170.315H74.0179V170.42Z" fill="white"/>
<path d="M76.2143 169.422C76.2143 169.58 76.2143 169.685 76.2678 169.842C76.3214 169.947 76.375 170.105 76.4821 170.21C76.5893 170.315 76.6428 170.42 76.75 170.472C76.8571 170.525 76.9643 170.63 77.0714 170.63C77.0714 170.63 77.0178 170.682 77.0178 170.735C77.0178 170.787 76.9643 170.787 76.9643 170.84C76.9107 170.892 76.9107 170.892 76.9107 170.945C76.9107 170.997 76.8571 170.997 76.8571 171.05C76.8036 170.997 76.6964 170.997 76.6428 170.945C76.5893 170.892 76.4821 170.84 76.4286 170.787C76.3214 170.735 76.2678 170.63 76.1607 170.577C76.1071 170.472 76 170.42 75.9464 170.315C75.8928 170.42 75.8928 170.472 75.7857 170.577C75.7321 170.682 75.6786 170.735 75.5714 170.84C75.4643 170.945 75.4107 170.997 75.3036 171.05C75.1964 171.102 75.1428 171.155 75.0357 171.207L74.875 171.05C74.8214 170.997 74.7143 170.945 74.6607 170.892C74.7678 170.84 74.9286 170.735 75.0357 170.682L75.3571 170.367C75.4643 170.262 75.5178 170.157 75.5714 170C75.625 169.842 75.625 169.737 75.625 169.58V169.107H76.1607V169.317L76.2143 169.422ZM75.5178 171.785C75.5714 171.68 75.6786 171.575 75.7857 171.522C75.8928 171.47 76.0536 171.417 76.2143 171.365C76.375 171.312 76.5893 171.312 76.75 171.312C76.9643 171.312 77.125 171.312 77.2857 171.365C77.4464 171.417 77.6071 171.47 77.7143 171.522C77.8214 171.575 77.9286 171.68 77.9821 171.785C78.0357 171.89 78.0893 171.995 78.0893 172.1C78.0893 172.205 78.0357 172.31 77.9821 172.415C77.9286 172.52 77.8214 172.625 77.7143 172.677C77.6071 172.73 77.4464 172.782 77.2857 172.835C77.125 172.887 76.9107 172.887 76.75 172.887C76.5357 172.887 76.375 172.887 76.2143 172.835C76.0536 172.782 75.8928 172.73 75.7857 172.677C75.6786 172.625 75.5714 172.52 75.5178 172.415C75.4643 172.31 75.4107 172.205 75.4107 172.1C75.4107 171.995 75.4643 171.89 75.5178 171.785ZM76 172.257L76.1607 172.415C76.2143 172.467 76.3214 172.467 76.4286 172.52C76.5357 172.52 76.6428 172.572 76.75 172.572C76.8571 172.572 76.9643 172.572 77.0714 172.52C77.1786 172.52 77.2857 172.467 77.3393 172.415C77.3928 172.362 77.5 172.31 77.5 172.257C77.5536 172.205 77.5536 172.152 77.5536 172.1C77.5536 171.942 77.4464 171.837 77.2857 171.785C77.125 171.732 76.9107 171.68 76.6964 171.68C76.5893 171.68 76.4821 171.68 76.375 171.732C76.2678 171.732 76.1607 171.785 76.1071 171.837C76.0536 171.89 75.9464 171.942 75.9464 171.995C75.8928 172.047 75.8928 172.1 75.8928 172.152C75.8928 172.205 75.9464 172.205 76 172.257ZM77.125 170H76.8036V169.527H77.5536V168.792H78.0357V171.207H77.5536V169.895H77.125V170Z" fill="white"/>
<path d="M82.9643 172.783C83.125 172.678 83.2321 172.573 83.3393 172.415C83.4464 172.258 83.5 172.048 83.5536 171.785C83.6071 171.628 83.6071 171.523 83.6071 171.313V170.735C83.6071 170.473 83.6071 170.263 83.5536 170.053C83.5536 169.843 83.5 169.685 83.4464 169.528C83.3928 169.37 83.3393 169.265 83.2321 169.16L82.9107 168.845L83.0178 168.635C83.1786 168.74 83.3928 168.845 83.5 169.003C83.6607 169.16 83.7678 169.37 83.8214 169.58C83.875 169.685 83.875 169.843 83.9286 170.053C83.9821 170.263 83.9821 170.473 83.9821 170.683C83.9821 170.945 83.9821 171.208 83.9286 171.418C83.875 171.628 83.875 171.838 83.8214 171.943C83.7143 172.153 83.6071 172.363 83.4464 172.52C83.2857 172.678 83.125 172.783 82.9643 172.783Z" fill="white"/>
<path d="M80.0179 170.998H79.375V170.578H82.8571V170.998H80.0179ZM80.0714 172.678C79.8571 172.52 79.6964 172.363 79.6964 172.1C79.6964 171.89 79.8036 171.68 80.0714 171.523C80.2857 171.365 80.6607 171.313 81.0893 171.313C81.5179 171.313 81.8929 171.365 82.1071 171.523C82.3214 171.68 82.4821 171.838 82.4821 172.1C82.4821 172.31 82.375 172.52 82.1071 172.678C81.8929 172.835 81.5179 172.888 81.0893 172.888C80.6607 172.888 80.2857 172.783 80.0714 172.678ZM79.8036 170.263V168.95H82.4286V169.37H80.2857V169.895H82.4821V170.315H82L79.8036 170.263ZM80.4464 172.363C80.6071 172.415 80.8214 172.468 81.0893 172.468C81.3571 172.468 81.5714 172.415 81.7321 172.363C81.8929 172.31 81.9464 172.205 81.9464 172.048C81.9464 171.943 81.8929 171.838 81.7321 171.733C81.5714 171.68 81.3571 171.628 81.0893 171.628C80.8214 171.628 80.6071 171.68 80.4464 171.733C80.2857 171.785 80.2321 171.89 80.2321 172.048C80.2321 172.205 80.2857 172.31 80.4464 172.363Z" fill="white"/>
<path d="M106.25 152.15C106.25 150.56 107.58 149.25 109.214 149.25H132.786C134.42 149.25 135.75 150.56 135.75 152.15V172.1C135.75 173.69 134.42 175 132.786 175H109.214C107.58 175 106.25 173.69 106.25 172.1V152.15Z" fill="#353336" stroke="#777777" stroke-width="0.5"/>
<path d="M116.339 156.14C116.5 156.613 116.821 157.295 116.714 157.873C116.607 158.398 116.446 158.87 116.339 159.343L116.232 159.815C116.232 159.815 116.768 159.815 117.143 159.973C117.518 160.078 117.946 160.55 117.946 160.97C118 161.338 118.054 162.913 118 163.333C117.946 163.805 117.839 164.96 117.839 165.065C117.839 165.065 119.286 164.96 119.875 165.065C120.464 165.17 121.214 165.38 121.964 166.483C122.714 167.585 123.464 168.635 123.839 168.793C124.214 168.95 125.286 168.95 125.5 168.95C125.661 168.95 126.946 169.16 127.161 169.108C127.429 169.003 129.089 169.895 129.25 169.895C129.464 169.948 129.839 170.263 129.839 170.263C129.839 170.263 130.107 170 130.375 169.948C130.696 169.843 130.857 170 130.964 170.105C131.071 170.21 131.125 170.368 131.875 170.263C132.625 170.158 132.893 170.368 133 170.473C133.107 170.578 133.321 170.683 133.375 170.735C133.429 170.788 133.643 171.103 133.375 171.26C133.375 171.26 133.107 171.523 132.946 171.47C132.946 171.47 132.518 171.418 132.464 171.313C132.357 171.26 131.768 171.155 131.554 171.155C131.339 171.155 130.375 171.103 130.375 171.103C130.375 171.103 130.536 171.313 130.321 171.575C130.321 171.575 130.429 171.943 130 171.89C129.625 171.89 129.571 171.68 129.518 171.68C129.411 171.68 128.821 171.26 128.821 171.26C128.821 171.26 124.857 171.575 124.107 171.575C123.357 171.575 122.446 171.575 122.125 171.628C121.804 171.68 121 171.785 120.786 171.785C120.625 171.785 119.286 171.89 119.071 171.628C118.911 171.418 118.696 171.365 118.696 170.84C118.696 170.84 118.268 170.998 117.946 170.998C117.625 170.998 114.839 171.523 114.732 171.68C114.679 171.785 114.25 171.838 114.089 171.838C113.929 171.838 113.393 171.68 113.286 171.785C113.179 171.89 113.071 171.89 113.071 171.68C113.071 171.523 112.429 171.733 112.321 171.733C112.214 171.733 112 171.68 112.107 171.575C112.214 171.47 112.321 171.418 112.482 171.26C112.643 171.103 112.75 170.998 112.911 170.788C113.071 170.578 113.179 170.263 113.286 170.053C113.393 169.895 113.5 169.475 113.661 169.265C113.821 169.108 114.679 168.11 114.679 168.11C114.679 168.11 114.196 166.955 113.982 166.745C113.821 166.535 113.018 165.59 112.911 165.328C112.804 165.065 112.589 167.375 112.589 167.375C112.589 167.375 112.536 168.793 112.429 169.318C112.375 169.843 112 170.788 111.946 170.945C111.946 171.103 111.679 171.47 111.571 171.523H110.875C110.714 171.47 110.179 171.68 110.071 171.68C110.018 171.68 108.946 171.628 108.839 171.628C108.732 171.628 108.196 171.628 108.143 171.575C108.089 171.523 108.893 171.26 109.054 171.155C109.214 171.05 109.536 171.103 109.857 171.05H111.036C111.196 171.05 111.25 170.893 111.25 170.735C111.25 170.578 111.196 168.583 111.196 168.268C111.143 168.005 110.821 167.113 111.089 166.168C111.089 166.168 111.25 164.96 111.25 164.593C111.25 164.225 111.357 163.49 111.357 163.385C111.357 163.385 111.196 162.913 111.196 162.86C111.196 162.808 111.196 161.128 111.304 160.918C111.411 160.708 111.571 160.55 112.054 160.288C112.482 160.025 112.429 159.763 112.429 159.658C112.429 159.553 112.696 158.923 112.75 158.818C112.804 158.66 112.911 158.608 112.696 158.398C112.482 158.135 112.589 157.715 112.589 157.19C112.589 156.665 113.071 155.72 113.714 155.143C113.714 155.143 114.089 154.933 114.304 154.933C114.518 154.933 114.518 154.985 114.732 154.88C115 154.723 115.214 154.775 115.214 154.775C115.589 154.933 116.179 155.615 116.339 156.14Z" fill="white"/>
<path d="M120.357 153.147C120.411 153.305 120.518 153.462 120.625 153.62C120.732 153.777 120.893 153.882 121 153.987C121.161 154.092 121.321 154.145 121.429 154.197C121.375 154.25 121.321 154.302 121.321 154.355C121.268 154.407 121.214 154.46 121.214 154.512C121.161 154.565 121.107 154.617 121.107 154.67C121.054 154.722 121.054 154.775 121 154.775L120.679 154.617C120.571 154.565 120.464 154.46 120.357 154.355C120.25 154.25 120.143 154.197 120.036 154.092C119.929 153.987 119.875 153.882 119.821 153.777L119.661 154.092L119.339 154.407L119.018 154.722C118.911 154.827 118.804 154.88 118.696 154.932L118.589 154.827C118.536 154.775 118.482 154.722 118.429 154.722L118.268 154.565L118.107 154.407C118.321 154.302 118.482 154.197 118.643 154.04L119.125 153.567C119.232 153.462 119.286 153.305 119.339 153.147C119.393 152.99 119.446 152.832 119.446 152.622V151.835H120.304V152.675C120.25 152.832 120.304 152.99 120.357 153.147ZM119.179 155.772V155.352H119.982V156.35H122.929V157.032H119.232V155.772H119.179ZM121.482 153.305H121.054V152.57H122.071V151.73H122.875V155.615H122.071V153.357L121.482 153.305Z" fill="white"/>
<path d="M125.554 152.832C125.554 152.99 125.607 153.2 125.661 153.357C125.714 153.515 125.821 153.62 125.929 153.725C126.036 153.83 126.196 153.935 126.304 154.04C126.464 154.092 126.571 154.197 126.732 154.197C126.625 154.302 126.571 154.407 126.464 154.512C126.357 154.617 126.304 154.722 126.304 154.775C126.25 154.775 126.143 154.722 126.036 154.67C125.929 154.617 125.821 154.512 125.714 154.46C125.607 154.355 125.5 154.302 125.393 154.197C125.286 154.092 125.232 153.987 125.179 153.882C125.125 153.987 125.071 154.04 124.964 154.145C124.857 154.25 124.804 154.355 124.643 154.46C124.536 154.565 124.429 154.67 124.268 154.722C124.161 154.827 124.054 154.88 123.946 154.932C123.893 154.88 123.839 154.775 123.732 154.722C123.625 154.617 123.518 154.512 123.411 154.46C123.571 154.407 123.786 154.302 123.946 154.197C124.107 154.092 124.268 153.935 124.375 153.83C124.482 153.725 124.589 153.567 124.643 153.41C124.696 153.252 124.75 153.095 124.75 152.937V152.727H123.839V152.045H126.411V152.727H125.5L125.554 152.832ZM124.482 155.615C124.589 155.457 124.696 155.352 124.857 155.247C125.018 155.142 125.232 155.09 125.446 155.037C125.661 154.985 125.929 154.932 126.25 154.932C126.518 154.932 126.786 154.985 127.054 155.037C127.268 155.09 127.482 155.195 127.643 155.247C127.804 155.352 127.964 155.457 128.018 155.615C128.125 155.772 128.179 155.877 128.179 156.087C128.179 156.245 128.125 156.402 128.018 156.56C127.911 156.717 127.804 156.822 127.643 156.927C127.482 157.032 127.268 157.085 127.054 157.137C126.839 157.19 126.571 157.242 126.25 157.242C125.661 157.242 125.179 157.137 124.857 156.927C124.536 156.717 124.321 156.455 124.321 156.14C124.375 155.93 124.429 155.772 124.482 155.615ZM125.286 156.297C125.339 156.35 125.446 156.402 125.5 156.455C125.607 156.507 125.714 156.56 125.875 156.56C126.036 156.56 126.143 156.612 126.304 156.612C126.625 156.612 126.893 156.56 127.107 156.455C127.321 156.35 127.429 156.245 127.429 156.087C127.429 155.93 127.321 155.772 127.107 155.72C126.893 155.615 126.625 155.562 126.304 155.562C125.982 155.562 125.714 155.615 125.5 155.667C125.286 155.772 125.179 155.877 125.179 156.035C125.179 156.14 125.179 156.192 125.286 156.297ZM126.893 153.567H126.464V152.885H127.375V151.73H128.125V154.985H127.375V153.567H126.893Z" fill="white"/>
<path d="M130.857 152.99C130.911 153.147 131.018 153.305 131.125 153.462C131.232 153.62 131.393 153.725 131.5 153.83C131.661 153.935 131.821 153.987 131.982 154.04C131.929 154.092 131.929 154.145 131.875 154.197C131.821 154.25 131.768 154.302 131.768 154.355C131.714 154.407 131.661 154.46 131.661 154.512C131.607 154.565 131.607 154.617 131.554 154.617L131.232 154.46C131.125 154.407 131.018 154.302 130.911 154.197C130.804 154.092 130.696 154.04 130.589 153.935C130.482 153.83 130.429 153.725 130.375 153.62L130.214 153.935L129.893 154.25L129.571 154.565C129.464 154.67 129.357 154.722 129.25 154.775L128.982 154.512C128.982 154.512 128.768 154.302 128.661 154.25L129.143 153.935C129.143 153.935 129.464 153.672 129.571 153.515C129.679 153.357 129.786 153.2 129.839 153.042C129.893 152.885 129.946 152.675 129.946 152.517V151.835H130.804V152.517C130.75 152.675 130.804 152.832 130.857 152.99ZM129.679 155.615C129.786 155.457 129.893 155.352 130.054 155.247C130.214 155.142 130.429 155.09 130.643 154.985C130.857 154.932 131.125 154.88 131.446 154.88C131.714 154.88 131.982 154.932 132.25 154.985C132.464 155.037 132.679 155.142 132.839 155.195C133 155.3 133.161 155.405 133.214 155.562C133.321 155.72 133.375 155.825 133.375 156.035C133.375 156.192 133.321 156.35 133.268 156.507C133.161 156.665 133.054 156.77 132.893 156.875C132.732 156.98 132.518 157.032 132.304 157.085C132.089 157.137 131.821 157.19 131.5 157.19C131.179 157.19 130.911 157.137 130.696 157.085C130.482 157.032 130.268 156.98 130.107 156.875C129.946 156.77 129.839 156.665 129.732 156.507C129.625 156.35 129.571 156.245 129.571 156.035C129.571 155.93 129.571 155.772 129.679 155.615ZM130.429 156.245C130.482 156.297 130.589 156.35 130.643 156.402C130.75 156.455 130.857 156.507 131.018 156.507C131.179 156.507 131.286 156.56 131.446 156.56C131.768 156.56 132.036 156.507 132.25 156.402C132.464 156.297 132.571 156.192 132.571 156.035C132.571 155.877 132.464 155.72 132.25 155.615C132.036 155.51 131.768 155.457 131.446 155.457C131.125 155.457 130.857 155.51 130.643 155.615C130.429 155.72 130.321 155.825 130.321 155.982C130.375 156.14 130.375 156.192 130.429 156.245ZM131.982 153.305H131.554V152.57H132.518V151.73H133.321V154.985H132.518V153.305H131.982Z" fill="white"/>
<path d="M148.5 152.15C148.5 150.703 149.713 149.5 151.214 149.5H174.786C176.287 149.5 177.5 150.703 177.5 152.15V172.1C177.5 173.547 176.287 174.75 174.786 174.75H151.214C149.713 174.75 148.5 173.547 148.5 172.1V152.15Z" fill="#353336" stroke="#777777"/>
<path d="M148.25 152.15C148.25 150.56 149.58 149.25 151.214 149.25H174.786C176.42 149.25 177.75 150.56 177.75 152.15V172.1C177.75 173.69 176.42 175 174.786 175H151.214C149.58 175 148.25 173.69 148.25 172.1V152.15Z" fill="#353336" stroke="#777777" stroke-width="0.5"/>
<path d="M163.696 169.37L165.089 170.735L167.071 171.627L167.5 171.785L166.911 173.675L164.554 171.575L160.054 173.412L160.482 169.002L156.304 166.325L160.482 163.7L158.982 158.397L164.875 159.5L168.143 155.3L171.304 159.5H175.589L173.446 163.385L176.393 165.8L173.339 167.112V166.745L172.857 164.697L172 163.28L170.929 163.07H170.714L171.304 163.017L170.232 161.652L168.893 159.972C168.518 159.5 167.714 159.447 167.179 159.867C166.589 160.287 166.482 161.022 166.857 161.495L168.036 162.965H167.982L167.714 162.702L166.375 161.232C165.946 160.76 165.196 160.812 164.661 161.285C164.125 161.757 164.018 162.492 164.446 162.965L165.518 164.12L165.464 164.172L164.714 163.437C164.232 162.912 163.375 162.912 162.893 163.385C162.357 163.857 162.357 164.697 162.839 165.17L163.75 166.115V166.167L163.482 165.905C163 165.432 162.143 165.38 161.661 165.905C161.179 166.377 161.179 167.217 161.661 167.69L163 169.002C163.161 169.212 163.429 169.37 163.696 169.37Z" fill="white"/>
<path d="M171.304 163.017L170.232 161.652L168.893 159.972C168.518 159.5 167.714 159.447 167.179 159.867C166.589 160.287 166.482 161.022 166.857 161.495L168.196 163.175" fill="#353336"/>
<path d="M171.304 163.017L170.232 161.652L168.893 159.972C168.518 159.5 167.714 159.447 167.179 159.867C166.589 160.287 166.482 161.022 166.857 161.495L168.196 163.175" stroke="white" stroke-miterlimit="10"/>
<path d="M168.196 163.28L167.661 162.702L166.321 161.232C165.893 160.76 165.143 160.812 164.607 161.285C164.071 161.757 163.964 162.492 164.393 162.965L165.732 164.435" fill="#353336"/>
<path d="M168.196 163.28L167.661 162.702L166.321 161.232C165.893 160.76 165.143 160.812 164.607 161.285C164.071 161.757 163.964 162.492 164.393 162.965L165.732 164.435" stroke="white" stroke-miterlimit="10"/>
<path d="M175.857 172.048L173.286 168.635C173.286 168.635 174.036 165.905 172.321 163.648C170.607 161.39 165.893 164.54 165.893 164.54C165.893 164.54 165.786 166.43 167.768 166.168C168.625 166.063 169.161 165.748 169.696 165.643" fill="#353336"/>
<path d="M175.857 172.048L173.286 168.635C173.286 168.635 174.036 165.905 172.321 163.648C170.607 161.39 165.893 164.54 165.893 164.54C165.893 164.54 165.786 166.43 167.768 166.168C168.625 166.063 169.161 165.748 169.696 165.643" stroke="white" stroke-miterlimit="10"/>
<path d="M165.893 164.645L164.661 163.385C164.179 162.86 163.321 162.86 162.839 163.333C162.304 163.805 162.304 164.645 162.786 165.118L164.125 166.483C164.607 167.008 165.464 167.008 165.946 166.535C166.161 166.325 166.268 166.063 166.321 165.8C166 165.433 165.893 164.855 165.893 164.645Z" fill="#353336" stroke="white" stroke-miterlimit="10"/>
<path d="M161.607 165.905C161.125 166.377 161.125 167.217 161.607 167.69L162.946 169.002C163.429 169.475 164.286 169.475 164.768 169.002C165.25 168.53 165.25 167.69 164.768 167.217L163.429 165.905C162.946 165.432 162.089 165.432 161.607 165.905Z" fill="#353336" stroke="white" stroke-miterlimit="10"/>
<path d="M169.482 173.36L168.25 171.995C168.25 171.995 166.214 171.995 163.643 169.58" fill="white"/>
<path d="M169.482 173.36L168.25 171.995C168.25 171.995 166.214 171.995 163.643 169.58" stroke="white" stroke-miterlimit="10"/>
<path d="M154.161 154.04H155.018V154.723H150.304V154.04H152.286V153.62H150.732V152.938H151.429V152.15H150.839V151.468H154.536V152.15H153.946V152.938H154.643V153.62H153.089V154.04H154.161ZM154.482 156.56V156.823H153.679V155.773H150.732V155.09H154.429V156.245C154.482 156.35 154.482 156.455 154.482 156.56ZM152.071 152.99H153.196V152.203H152.071V152.99Z" fill="white"/>
<path d="M156.25 152.255H155.714V151.572H158.232V153.357H156.464V153.882H157.482C157.643 153.882 157.75 153.882 157.911 153.83C158.071 153.83 158.179 153.777 158.339 153.777C158.5 153.777 158.607 153.725 158.714 153.725V154.355C158.607 154.355 158.5 154.407 158.339 154.407C158.179 154.407 158.018 154.46 157.857 154.46C157.696 154.46 157.482 154.512 157.321 154.512H155.714V152.727H157.482V152.202L156.25 152.255ZM160.107 156.56V156.822H159.25V155.72H156.143V155.037H160.107V156.56ZM158.982 152.622H158.554V151.94H159.304V151.415H160.107V154.827H159.357V153.672H158.554V152.99H159.304V152.57L158.982 152.622Z" fill="white"/>
<path d="M162.893 152.675C162.946 152.832 163.054 152.99 163.161 153.147C163.268 153.305 163.429 153.41 163.536 153.515C163.696 153.62 163.857 153.672 164.018 153.725C163.964 153.777 163.964 153.83 163.911 153.882C163.857 153.935 163.804 153.987 163.804 154.04C163.75 154.092 163.696 154.145 163.696 154.197C163.643 154.25 163.643 154.302 163.589 154.302L163.268 154.145C163.268 154.145 163.054 153.987 162.946 153.882C162.839 153.777 162.732 153.725 162.625 153.62C162.518 153.515 162.464 153.41 162.411 153.305L162.25 153.62L161.929 153.935L161.607 154.25C161.5 154.355 161.393 154.407 161.286 154.46L161.018 154.197C161.018 154.197 160.804 153.987 160.696 153.935L161.179 153.62C161.339 153.515 161.5 153.357 161.607 153.2C161.714 153.042 161.821 152.885 161.875 152.727C161.929 152.57 161.982 152.36 161.982 152.202V151.52H162.839V152.15C162.786 152.36 162.786 152.517 162.893 152.675ZM161.714 155.3C161.821 155.142 161.929 155.037 162.089 154.932C162.25 154.827 162.464 154.775 162.679 154.67C162.893 154.617 163.161 154.565 163.482 154.565C163.75 154.565 164.018 154.617 164.286 154.67C164.5 154.722 164.714 154.827 164.875 154.88C165.036 154.985 165.196 155.09 165.25 155.247C165.357 155.405 165.411 155.51 165.411 155.72C165.411 155.877 165.357 156.035 165.25 156.192C165.143 156.35 165.036 156.455 164.875 156.56C164.714 156.665 164.5 156.717 164.286 156.77C164.071 156.822 163.804 156.875 163.482 156.875C163.161 156.875 162.893 156.822 162.679 156.77C162.464 156.717 162.25 156.665 162.089 156.56C161.929 156.455 161.821 156.35 161.714 156.192C161.607 156.035 161.554 155.93 161.554 155.72C161.554 155.615 161.607 155.457 161.714 155.3ZM162.464 155.982C162.518 156.035 162.625 156.087 162.679 156.14C162.786 156.192 162.893 156.245 163.054 156.245C163.214 156.297 163.321 156.297 163.482 156.297C163.804 156.297 164.071 156.245 164.286 156.14C164.5 156.035 164.607 155.93 164.607 155.772C164.607 155.615 164.5 155.457 164.286 155.352C164.071 155.247 163.804 155.195 163.482 155.195C163.161 155.195 162.893 155.247 162.679 155.352C162.464 155.457 162.357 155.562 162.357 155.72C162.357 155.825 162.411 155.877 162.464 155.982ZM164.018 152.99H163.589V152.255H164.554V151.362H165.357V154.617H164.554V152.937L164.018 152.99Z" fill="white"/>
<path d="M232 153.15C232 151.418 233.446 150 235.214 150H258.786C260.554 150 262 151.418 262 153.15V173.1C262 174.832 260.554 176.25 258.786 176.25H235.214C233.446 176.25 232 174.832 232 173.1V153.15Z" fill="#353336"/>
<path d="M232.25 153.15C232.25 151.56 233.58 150.25 235.214 150.25H258.786C260.42 150.25 261.75 151.56 261.75 153.15V173.1C261.75 174.69 260.42 176 258.786 176H235.214C233.58 176 232.25 174.69 232.25 173.1V153.15Z" fill="#353336" stroke="#777777" stroke-width="0.5"/>
<path d="M251.179 158.977C246.732 158.977 243.089 162.232 243.089 166.59C243.089 170.947 246.732 174.202 251.179 174.202C255.625 174.202 259.268 170.947 259.268 166.59C259.268 162.232 255.679 158.977 251.179 158.977ZM248.179 162.232C249.625 162.232 250.804 163.072 250.804 164.49C250.804 165.907 249.625 167.062 248.179 167.062C246.732 167.062 245.554 166.222 245.554 164.805C245.554 163.387 246.732 162.232 248.179 162.232ZM255.786 170.895C255.089 170.947 254.768 170.685 254.393 170.107V170.055C254.232 169.792 254.179 169.74 254.071 169.74C253.857 169.74 253.857 169.74 253.75 169.845L253.696 169.897C253.429 170.16 253.161 170.265 252.732 170.317C252.143 170.37 251.821 170.16 251.446 169.687C251.339 169.53 251.339 169.53 251.286 169.53C251.179 169.53 251.179 169.53 250.964 169.74C250.589 170.16 250.321 170.37 249.839 170.37C249.411 170.37 249.143 170.265 248.768 170.002C248.554 169.845 248.446 169.792 248.286 169.792C248.232 169.792 248.125 169.845 247.911 170.16C247.482 170.685 247.214 170.947 246.679 170.947C246.357 170.947 246.143 170.737 246.143 170.422C246.143 170.107 246.357 169.897 246.679 169.897C246.732 169.897 246.839 169.845 247.054 169.53C247.482 169.005 247.75 168.742 248.286 168.742C248.714 168.742 248.982 168.847 249.357 169.11C249.571 169.267 249.679 169.32 249.839 169.32C249.946 169.32 249.946 169.32 250.161 169.11C250.536 168.69 250.804 168.48 251.286 168.48C251.768 168.48 252.036 168.69 252.357 169.11C252.518 169.32 252.518 169.32 252.679 169.32C252.893 169.32 252.946 169.267 253.054 169.162L253.107 169.11C253.429 168.847 253.696 168.742 254.179 168.742C254.768 168.742 255.036 168.952 255.411 169.53V169.582C255.625 169.897 255.679 169.897 255.839 169.897C256.161 169.897 256.375 170.107 256.429 170.37C256.482 170.632 256.054 170.842 255.786 170.895ZM254.179 167.062C252.732 167.062 251.554 165.907 251.554 164.49C251.554 163.072 252.732 162.232 254.179 162.232C255.625 162.232 256.804 163.387 256.804 164.805C256.804 166.222 255.625 167.062 254.179 167.062Z" fill="white"/>
<path d="M248.179 166.012C249.036 166.012 249.732 165.33 249.732 164.49C249.732 163.755 249.143 163.282 248.179 163.282C247.321 163.282 246.625 163.965 246.625 164.805C246.679 165.487 247.268 166.012 248.179 166.012ZM248.179 163.912C248.5 163.912 248.821 164.175 248.821 164.542C248.821 164.91 248.554 165.172 248.179 165.172C247.804 165.172 247.536 164.91 247.536 164.542C247.536 164.175 247.857 163.912 248.179 163.912ZM254.179 163.282C253.214 163.282 252.625 163.755 252.625 164.49C252.625 165.33 253.321 166.012 254.179 166.012C255.143 166.012 255.732 165.54 255.732 164.805C255.732 163.965 255.036 163.282 254.179 163.282ZM254.179 165.12C253.857 165.12 253.536 164.857 253.536 164.49C253.536 164.122 253.804 163.86 254.179 163.86C254.5 163.86 254.821 164.122 254.821 164.49C254.821 164.857 254.5 165.12 254.179 165.12Z" fill="white"/>
<path d="M236.125 154.253V153.833H236.929V154.725H239.286V155.408H234.411V154.725H236.125V154.253ZM235.321 156.038C235.643 155.828 236.179 155.723 236.821 155.723C237.464 155.723 237.946 155.828 238.321 156.038C238.643 156.248 238.857 156.51 238.857 156.825C238.857 157.14 238.696 157.403 238.321 157.613C238 157.823 237.464 157.928 236.821 157.928C236.179 157.928 235.696 157.823 235.321 157.613C235 157.403 234.786 157.14 234.786 156.825C234.839 156.51 235 156.248 235.321 156.038ZM238.857 152.625C238.857 152.993 238.857 153.308 238.804 153.57C238.75 153.833 238.75 154.095 238.696 154.41H237.946C238 154.253 238 154.095 238 153.885C238 153.675 238.054 153.465 238.054 153.255H234.893V152.573H235.536L238.857 152.625ZM235.964 157.245C236.179 157.35 236.446 157.35 236.821 157.35C237.196 157.35 237.464 157.298 237.679 157.245C237.893 157.14 238 157.035 238 156.825C238 156.668 237.893 156.51 237.679 156.458C237.464 156.353 237.196 156.353 236.821 156.353C236.446 156.353 236.179 156.405 235.964 156.458C235.75 156.563 235.643 156.668 235.643 156.825C235.696 157.035 235.804 157.14 235.964 157.245Z" fill="white"/>
<path d="M245.339 156.668H246.196V157.403H241.321V156.668H243.357V155.565H241.696V154.935H242.393V153.308H241.857V152.573H245.714V153.308H245.125V154.935H245.821V155.67H244.107V156.773H245.339V156.668ZM243.143 154.935H244.429V153.308H243.143V154.935Z" fill="white"/>
<path d="M190.25 152.15C190.25 150.56 191.58 149.25 193.214 149.25H216.786C218.42 149.25 219.75 150.56 219.75 152.15V172.1C219.75 173.69 218.42 175 216.786 175H193.214C191.58 175 190.25 173.69 190.25 172.1V152.15Z" fill="#353336" stroke="#777777" stroke-width="0.5"/>
<path d="M190.25 152.15C190.25 150.56 191.58 149.25 193.214 149.25H216.786C218.42 149.25 219.75 150.56 219.75 152.15V172.1C219.75 173.69 218.42 175 216.786 175H193.214C191.58 175 190.25 173.69 190.25 172.1V152.15Z" fill="#353336" stroke="#777777" stroke-width="0.5"/>
<path d="M214 160.025H215.714C216.893 160.025 217.857 159.08 217.857 157.925V153.2C217.857 152.045 216.893 151.1 215.714 151.1H201.786C200.607 151.1 199.643 152.045 199.643 153.2V157.925C199.643 159.08 200.607 160.025 201.786 160.025H210.089L214.643 163.595L214 160.025ZM203.286 157.347L203.393 156.717C203.071 156.717 202.911 156.612 202.911 156.35C202.911 156.245 202.964 156.14 203.018 156.087C203.071 156.035 203.232 155.982 203.339 155.982H203.5L203.714 155.037H203.393C203.232 155.037 203.125 154.985 203.071 154.932C202.964 154.88 202.964 154.775 202.964 154.67C202.964 154.565 203.018 154.46 203.071 154.407C203.125 154.355 203.286 154.302 203.393 154.302H203.875L204.036 153.515C204.036 153.41 204.089 153.305 204.143 153.2C204.196 153.147 204.196 153.095 204.25 153.042C204.304 152.99 204.357 152.99 204.464 152.99C204.571 152.99 204.679 153.042 204.732 153.095C204.786 153.147 204.839 153.252 204.839 153.357C204.839 153.357 204.839 153.515 204.786 153.672L204.625 154.25H205.375L205.536 153.515C205.536 153.41 205.589 153.305 205.589 153.252C205.589 153.2 205.643 153.147 205.696 153.095C205.75 153.042 205.804 153.042 205.911 153.042C206.018 153.042 206.125 153.095 206.179 153.147C206.232 153.2 206.286 153.305 206.286 153.41V153.725L206.179 154.25C206.5 154.25 206.661 154.355 206.661 154.617C206.661 154.722 206.607 154.827 206.554 154.88C206.5 154.932 206.339 154.985 206.232 154.985H206.071L205.857 155.93H206.232C206.393 155.93 206.5 155.982 206.554 156.035C206.607 156.087 206.661 156.192 206.661 156.297C206.661 156.402 206.607 156.507 206.554 156.56C206.5 156.612 206.339 156.665 206.232 156.665H205.696L205.536 157.452C205.536 157.557 205.482 157.662 205.482 157.715C205.482 157.767 205.429 157.82 205.375 157.872C205.321 157.925 205.268 157.925 205.161 157.925C205.054 157.925 204.946 157.872 204.893 157.82C204.839 157.767 204.786 157.662 204.786 157.557C204.786 157.452 204.786 157.347 204.839 157.242L204.946 156.612H204.196L204.036 157.4C203.982 157.61 203.929 157.715 203.929 157.82C203.875 157.925 203.768 157.925 203.661 157.925C203.554 157.925 203.446 157.872 203.393 157.82C203.339 157.767 203.286 157.662 203.286 157.557V157.347C203.232 157.452 203.232 157.4 203.286 157.347ZM205.268 154.985H204.518L204.304 155.93H205.054L205.268 154.985ZM208.268 154.092C208.268 153.882 208.321 153.672 208.429 153.515C208.536 153.357 208.696 153.2 208.911 153.095C209.125 152.99 209.393 152.937 209.661 152.937C209.929 152.937 210.196 152.99 210.411 153.095C210.625 153.2 210.786 153.357 210.893 153.515C211 153.672 211.054 153.882 211.054 154.04C211.054 154.302 210.946 154.512 210.786 154.67C210.625 154.88 210.357 155.037 210.036 155.247C210.143 155.352 210.25 155.51 210.357 155.615C210.464 155.72 210.571 155.825 210.625 155.93C210.679 156.035 210.786 156.14 210.893 156.192C210.946 156.14 211 156.035 211.054 155.825C211.107 155.615 211.214 155.51 211.268 155.457C211.321 155.405 211.429 155.352 211.536 155.352C211.643 155.352 211.75 155.405 211.804 155.457C211.857 155.51 211.911 155.615 211.911 155.72C211.911 155.825 211.857 155.93 211.804 156.14C211.75 156.297 211.643 156.507 211.482 156.717C211.589 156.77 211.696 156.875 211.857 157.032C212.018 157.19 212.179 157.295 212.179 157.347C212.232 157.4 212.232 157.452 212.232 157.557C212.232 157.662 212.179 157.767 212.125 157.872C212.071 157.977 211.964 157.977 211.857 157.977C211.75 157.977 211.643 157.925 211.536 157.872C211.429 157.82 211.214 157.662 210.893 157.4C210.732 157.557 210.571 157.662 210.411 157.715C210.25 157.82 210.089 157.872 209.929 157.925C209.768 157.977 209.554 157.977 209.339 157.977C209.071 157.977 208.804 157.925 208.589 157.872C208.375 157.767 208.161 157.662 208 157.557C207.839 157.4 207.732 157.242 207.679 157.085C207.625 156.927 207.571 156.77 207.571 156.56C207.571 156.402 207.625 156.245 207.679 156.087C207.732 155.93 207.786 155.825 207.893 155.72C208 155.615 208.107 155.51 208.268 155.405L208.75 155.09C208.589 154.88 208.429 154.67 208.375 154.512C208.321 154.355 208.268 154.25 208.268 154.092ZM209.232 155.667C209.018 155.772 208.804 155.93 208.696 156.035C208.589 156.14 208.536 156.297 208.536 156.507C208.536 156.612 208.536 156.717 208.589 156.822C208.643 156.927 208.696 156.98 208.75 157.085C208.804 157.19 208.911 157.242 209.018 157.242C209.125 157.295 209.232 157.295 209.339 157.295C209.446 157.295 209.554 157.295 209.661 157.242L209.982 157.085C209.982 157.085 210.196 156.927 210.304 156.822C210.089 156.665 209.929 156.455 209.768 156.297C209.607 156.14 209.446 155.93 209.232 155.667ZM209.554 154.775C209.768 154.617 209.929 154.512 210.036 154.407C210.143 154.302 210.196 154.197 210.196 154.04C210.196 153.882 210.143 153.777 210.036 153.672C209.929 153.567 209.821 153.515 209.661 153.515C209.5 153.515 209.393 153.62 209.286 153.672C209.179 153.725 209.125 153.882 209.125 153.987C209.125 154.04 209.125 154.145 209.179 154.197C209.232 154.25 209.286 154.355 209.339 154.407C209.393 154.565 209.446 154.617 209.554 154.775ZM213.732 155.825L213.625 154.25C213.625 153.935 213.571 153.725 213.571 153.567C213.571 153.357 213.625 153.252 213.732 153.147C213.839 153.042 213.946 152.99 214.107 152.99C214.321 152.99 214.429 153.042 214.482 153.2C214.536 153.357 214.589 153.515 214.589 153.777V154.25L214.429 155.825C214.429 156.035 214.375 156.192 214.321 156.297C214.268 156.402 214.161 156.455 214.054 156.455C213.946 156.455 213.839 156.402 213.786 156.297C213.732 156.192 213.732 156.035 213.732 155.825ZM214.107 157.977C213.946 157.977 213.839 157.925 213.732 157.82C213.625 157.715 213.571 157.61 213.571 157.452C213.571 157.295 213.625 157.19 213.732 157.085C213.839 156.98 213.946 156.927 214.107 156.927C214.268 156.927 214.375 156.98 214.482 157.085C214.589 157.19 214.643 157.295 214.643 157.452C214.643 157.61 214.589 157.715 214.482 157.82C214.375 157.925 214.214 157.977 214.107 157.977Z" fill="white"/>
<path d="M193.643 166.062H194.768C194.875 166.062 194.982 166.062 195.036 166.01C195.089 166.01 195.196 165.957 195.196 165.957V166.64C195.143 166.64 195.036 166.692 194.929 166.692C194.821 166.692 194.661 166.745 194.554 166.745C194.393 166.745 194.286 166.745 194.125 166.797H192.893V163.28C192.893 163.175 192.893 163.07 192.839 162.965H194.982V163.647H193.75V166.062H193.643ZM196.75 164.277V162.545H197.554V168.005H196.75V165.012H196.214V167.742H195.411V162.597H196.214V164.277H196.75Z" fill="white"/>
<path d="M200.714 163.07V162.755H201.464V164.067C201.464 164.382 201.518 164.645 201.571 164.855C201.625 165.117 201.732 165.327 201.839 165.485C201.946 165.695 202.054 165.852 202.214 166.01C202.375 166.167 202.536 166.272 202.696 166.43L202.536 166.587L202.375 166.745L202.268 166.85L202.161 166.955C202.107 166.902 202 166.85 201.893 166.745L201.571 166.43C201.464 166.325 201.357 166.167 201.304 166.062C201.196 165.905 201.143 165.8 201.089 165.642C201.036 165.8 200.982 165.905 200.929 166.062C200.821 166.22 200.768 166.325 200.661 166.482C200.554 166.587 200.446 166.745 200.339 166.85L200.071 167.112L199.804 166.85C199.804 166.85 199.589 166.692 199.482 166.587C199.696 166.43 199.857 166.272 200.071 166.115C200.232 165.957 200.393 165.747 200.5 165.485C200.607 165.275 200.661 165.065 200.714 164.855C200.768 164.645 200.768 164.382 200.768 164.12V163.437C200.714 163.28 200.714 163.175 200.714 163.07ZM203.768 164.592H204.196V165.327H203.554V168.057H202.857V162.597H203.554V164.645L203.768 164.592Z" fill="white"/>
<path d="M193.643 173.045C193.482 172.993 193.321 172.888 193.161 172.678C193 172.52 192.893 172.31 192.839 172.1C192.786 171.943 192.732 171.785 192.732 171.523C192.679 171.313 192.679 171.05 192.679 170.735C192.679 170.525 192.679 170.315 192.732 170.105C192.786 169.895 192.786 169.738 192.839 169.633C192.946 169.423 193.054 169.213 193.161 169.055C193.321 168.898 193.482 168.74 193.643 168.635L193.75 168.845L193.429 169.16C193.375 169.265 193.268 169.37 193.214 169.528C193.161 169.685 193.107 169.843 193.107 170.053C193.107 170.263 193.054 170.473 193.054 170.735V171.313C193.054 171.47 193.107 171.628 193.107 171.785C193.161 172.048 193.214 172.258 193.321 172.415C193.429 172.573 193.536 172.678 193.696 172.783L193.643 173.045Z" fill="white"/>
<path d="M194.339 169.58H194.018V169.16H196V169.58H195.25V169.947C195.25 170.157 195.25 170.315 195.304 170.472L195.464 170.945C195.518 171.102 195.625 171.26 195.786 171.365C195.893 171.522 196.054 171.627 196.214 171.732L196.054 171.89L195.893 172.047C195.839 171.995 195.732 171.942 195.679 171.837C195.571 171.785 195.518 171.68 195.464 171.575C195.357 171.47 195.304 171.365 195.25 171.26L195.089 170.945L194.929 171.26C194.929 171.26 194.821 171.47 194.714 171.575C194.607 171.68 194.554 171.785 194.446 171.89C194.339 171.995 194.286 172.047 194.179 172.1L194.018 171.942C193.964 171.89 193.911 171.837 193.804 171.785C193.964 171.68 194.125 171.575 194.232 171.417C194.339 171.26 194.446 171.155 194.554 170.945C194.661 170.787 194.714 170.63 194.714 170.42C194.768 170.21 194.768 170.052 194.768 169.79V169.475H194.339V169.58ZM196.107 170.63H195.786V170.157H196.482V168.845H196.964V172.887H196.482V170.577H196.107V170.63Z" fill="white"/>
<path d="M198.679 170.63V170.315H199.161V170.84H200.661V171.313H197.232V170.84H198.732L198.679 170.63ZM199.268 169.475L199.589 169.79C199.696 169.895 199.857 169.948 200.018 170C200.179 170.053 200.339 170.105 200.446 170.105L200.286 170.263C200.232 170.315 200.179 170.368 200.179 170.42C200.071 170.42 199.964 170.368 199.857 170.315C199.75 170.263 199.589 170.21 199.482 170.105C199.375 170.053 199.268 169.948 199.161 169.843C199.054 169.738 199 169.685 198.946 169.58C198.893 169.685 198.839 169.79 198.732 169.895C198.625 170 198.518 170.053 198.411 170.105C198.304 170.158 198.196 170.263 198.036 170.315C197.929 170.368 197.768 170.42 197.661 170.42C197.607 170.368 197.607 170.315 197.554 170.263L197.393 170.105L197.875 169.948C198.036 169.895 198.196 169.79 198.304 169.685C198.411 169.58 198.518 169.475 198.571 169.37C198.625 169.265 198.679 169.16 198.679 169.003V168.898H199.214V169.055C199.161 169.213 199.214 169.37 199.268 169.475ZM200.179 172.73V172.94H199.696V172.048H197.661V171.575H200.232V172.468C200.179 172.573 200.179 172.678 200.179 172.73Z" fill="white"/>
<path d="M202.054 169.475C202.054 169.633 202.054 169.738 202.107 169.895C202.161 170 202.214 170.158 202.321 170.263C202.429 170.368 202.482 170.473 202.589 170.525C202.696 170.578 202.804 170.683 202.911 170.683C202.911 170.683 202.857 170.735 202.857 170.788C202.857 170.84 202.804 170.84 202.804 170.893C202.75 170.945 202.75 170.945 202.75 170.998C202.75 171.05 202.696 171.05 202.696 171.103C202.643 171.05 202.536 171.05 202.482 170.998C202.429 170.945 202.321 170.893 202.268 170.84C202.161 170.788 202.107 170.683 202.054 170.63C202 170.525 201.893 170.473 201.893 170.368C201.893 170.473 201.839 170.525 201.786 170.63C201.732 170.735 201.679 170.788 201.571 170.893C201.518 170.998 201.411 171.05 201.304 171.103C201.196 171.155 201.143 171.208 201.036 171.26L200.875 171.103C200.821 171.05 200.768 170.998 200.661 170.945C200.768 170.893 200.929 170.788 201.036 170.683L201.357 170.368C201.464 170.263 201.518 170.158 201.571 170C201.625 169.843 201.625 169.738 201.625 169.58V169.108H202.107V169.475H202.054ZM201.357 171.838C201.411 171.733 201.518 171.628 201.625 171.575C201.732 171.523 201.893 171.47 202.054 171.418C202.214 171.365 202.375 171.365 202.589 171.365C202.804 171.365 202.964 171.365 203.125 171.418C203.286 171.47 203.446 171.523 203.554 171.575C203.661 171.628 203.768 171.733 203.821 171.838C203.875 171.943 203.929 172.048 203.929 172.153C203.929 172.258 203.875 172.363 203.821 172.468C203.768 172.573 203.661 172.678 203.554 172.73C203.446 172.783 203.286 172.835 203.125 172.888C202.964 172.94 202.804 172.94 202.589 172.94C202.375 172.94 202.214 172.94 202.054 172.888C201.893 172.835 201.732 172.783 201.625 172.73C201.518 172.678 201.411 172.573 201.357 172.468C201.304 172.363 201.25 172.258 201.25 172.153C201.304 172.048 201.304 171.943 201.357 171.838ZM201.839 172.363L202 172.52C202.054 172.573 202.161 172.573 202.268 172.625C202.375 172.625 202.482 172.678 202.589 172.678C202.696 172.678 202.804 172.678 202.911 172.625C203.018 172.625 203.125 172.573 203.179 172.52L203.339 172.363C203.339 172.363 203.393 172.258 203.393 172.205C203.393 172.048 203.339 171.943 203.125 171.89C202.964 171.838 202.75 171.785 202.536 171.785C202.429 171.785 202.321 171.785 202.214 171.838C202.107 171.838 202 171.89 201.946 171.943L201.786 172.1C201.786 172.1 201.732 172.205 201.732 172.31C201.786 172.205 201.786 172.258 201.839 172.363ZM202.964 170.053H202.643V169.633H203.393V168.898H203.875V171.365H203.393V170.053H202.964Z" fill="white"/>
<path d="M208.482 172.835C208.643 172.73 208.75 172.625 208.857 172.468C208.964 172.31 209.018 172.1 209.071 171.838C209.125 171.68 209.125 171.522 209.125 171.365V170.788C209.125 170.525 209.125 170.315 209.071 170.105C209.071 169.895 209.018 169.738 208.964 169.58C208.911 169.423 208.857 169.318 208.75 169.213C208.643 169.108 208.589 169.003 208.429 168.898L208.536 168.688C208.696 168.793 208.857 168.897 209.018 169.107C209.179 169.265 209.286 169.475 209.339 169.685C209.393 169.79 209.393 170 209.446 170.157C209.5 170.367 209.5 170.578 209.5 170.788C209.5 171.05 209.5 171.313 209.446 171.575C209.393 171.785 209.393 171.995 209.339 172.152C209.232 172.362 209.125 172.573 209.018 172.73C208.857 172.888 208.75 172.993 208.536 173.098L208.482 172.835Z" fill="white"/>
<path d="M205.911 171.207H205.268V170.787H208.75V171.207H205.911ZM205.964 172.835C205.75 172.677 205.589 172.52 205.589 172.257C205.589 172.047 205.696 171.837 205.964 171.68C206.179 171.522 206.554 171.47 206.982 171.47C207.411 171.47 207.786 171.522 208 171.68C208.214 171.837 208.375 171.995 208.375 172.257C208.375 172.467 208.268 172.677 208 172.835C207.786 172.992 207.411 173.045 206.982 173.045C206.554 173.045 206.179 172.992 205.964 172.835ZM205.696 170.42V169.107H208.321V169.527H206.179V170.052H208.375V170.472H207.893L205.696 170.42ZM206.339 172.572C206.5 172.625 206.714 172.677 206.982 172.677C207.25 172.677 207.464 172.625 207.625 172.572C207.786 172.52 207.839 172.415 207.839 172.257C207.839 172.152 207.786 172.047 207.625 171.942C207.464 171.89 207.25 171.837 206.982 171.837C206.714 171.837 206.5 171.89 206.339 171.942C206.179 171.995 206.125 172.1 206.125 172.257C206.125 172.362 206.232 172.467 206.339 172.572Z" fill="white"/>
<path d="M274 153.15C274 151.418 275.446 150 277.214 150H300.786C302.554 150 304 151.418 304 153.15V173.1C304 174.832 302.554 176.25 300.786 176.25H277.214C275.446 176.25 274 174.832 274 173.1V153.15Z" fill="#353336"/>
<path d="M274.25 153.15C274.25 151.56 275.58 150.25 277.214 150.25H300.786C302.42 150.25 303.75 151.56 303.75 153.15V173.1C303.75 174.69 302.42 176 300.786 176H277.214C275.58 176 274.25 174.69 274.25 173.1V153.15Z" fill="#353336" stroke="#777777" stroke-width="0.5"/>
<path d="M288.518 156.51L280.857 164.018C280.75 164.123 280.696 164.28 280.75 164.438L281.5 166.38C281.5 166.38 277 171.105 277.214 171.315C277.375 171.473 282.25 167.115 282.25 167.115L284.232 167.85C284.393 167.903 284.554 167.85 284.661 167.745L292.321 160.238L293.125 161.025C293.286 161.183 293.982 160.553 293.821 160.343L291.518 157.98L294.25 155.303L295.536 156.563C295.696 156.72 296.393 156.09 296.232 155.88L293.018 152.73C292.75 152.573 292.054 153.255 292.214 153.413L293.5 154.673L290.554 157.298L288.357 155.093C288.196 154.935 287.5 155.565 287.661 155.775L288.518 156.51ZM287.607 163.755L284.875 161.13L285.357 160.658L286.214 161.498C286.375 161.655 287.071 161.025 286.911 160.815L286.107 159.975L286.589 159.503L287.929 160.763C288.089 160.92 288.786 160.29 288.625 160.08L287.286 158.82L287.768 158.348L288.625 159.188C288.786 159.345 289.482 158.715 289.321 158.505L288.464 157.665L289.161 156.983L291.839 159.608L287.607 163.755Z" fill="white"/>
<path d="M289.696 168.742C289.75 168.585 289.857 168.427 289.964 168.27C290.071 168.165 290.232 168.06 290.393 167.955C290.554 167.902 290.768 167.85 290.929 167.85C291.143 167.85 291.304 167.902 291.464 167.955C291.625 168.007 291.786 168.112 291.893 168.27C292 168.375 292.107 168.532 292.214 168.742C292.268 168.9 292.321 169.11 292.321 169.267C292.321 169.477 292.268 169.635 292.214 169.845C292.161 170.002 292.054 170.16 291.893 170.317C291.786 170.422 291.625 170.527 291.464 170.632C291.304 170.685 291.089 170.737 290.929 170.737C290.714 170.737 290.554 170.685 290.393 170.632C290.232 170.58 290.071 170.475 289.964 170.317C289.857 170.212 289.75 170.055 289.696 169.845C289.643 169.687 289.589 169.477 289.589 169.267C289.589 169.057 289.589 168.9 289.696 168.742ZM293.714 172.942V173.205H292.964V171.945H290.125V171.262H293.714V172.942ZM290.5 169.845C290.607 170.002 290.768 170.055 290.982 170.055C291.196 170.055 291.357 170.002 291.464 169.845C291.571 169.687 291.625 169.53 291.625 169.32C291.625 169.11 291.571 168.952 291.464 168.795C291.357 168.637 291.196 168.585 290.982 168.585C290.768 168.585 290.607 168.637 290.5 168.795C290.393 168.952 290.339 169.11 290.339 169.32C290.286 169.477 290.339 169.687 290.5 169.845ZM293.714 169.53H294.357V170.265H293.714V171.105H293.018V167.85H293.768V168.375H294.411V169.057H293.768L293.714 169.53Z" fill="white"/>
<path d="M300.518 170.895V172.26H297.732V172.575H300.625V173.205H296.875V171.787H299.661V171.472H296.821V170.842H298.268V170.475H296.286V169.845H301V170.475H299.018V170.842L300.518 170.895ZM296.875 169.582V167.85H300.571V169.582H296.875ZM299.821 168.48H297.571V169.005H299.821V168.48Z" fill="white"/>
<path d="M316 153.15C316 151.418 317.446 150 319.214 150H342.786C344.554 150 346 151.418 346 153.15V173.1C346 174.832 344.554 176.25 342.786 176.25H319.214C317.446 176.25 316 174.832 316 173.1V153.15Z" fill="#353336"/>
<path d="M316.25 153.15C316.25 151.56 317.58 150.25 319.214 150.25H342.786C344.42 150.25 345.75 151.56 345.75 153.15V173.1C345.75 174.69 344.42 176 342.786 176H319.214C317.58 176 316.25 174.69 316.25 173.1V153.15Z" fill="#353336" stroke="#777777" stroke-width="0.5"/>
<path d="M322.804 156.247H324.786V156.93H320.071V156.247H322.054V155.092H320.661V152.362H324.25V155.092H322.857L322.804 156.247ZM323.5 153.045H321.357V154.515H323.5V153.045Z" fill="white"/>
<path d="M320.821 161.55C320.821 160.08 322 158.925 323.5 158.925H338.5C340 158.925 341.179 160.08 341.179 161.55V169.95C341.179 171.42 340 172.575 338.5 172.575H323.5C322 172.575 320.821 171.42 320.821 169.95V161.55Z" fill="#353336" stroke="white" stroke-miterlimit="10"/>
<path d="M325.75 154.935V152.257H326.554V152.992H327.679V152.257H328.429V154.935H325.75ZM326.607 155.67C326.929 155.46 327.411 155.355 328.054 155.355C328.696 155.355 329.179 155.46 329.5 155.67C329.821 155.88 329.982 156.142 329.982 156.405C329.982 156.72 329.821 156.982 329.5 157.14C329.179 157.35 328.696 157.455 328.054 157.455C327.411 157.455 326.929 157.35 326.607 157.14C326.286 156.93 326.125 156.667 326.125 156.405C326.125 156.195 326.286 155.88 326.607 155.67ZM327.571 153.622H326.446V154.305H327.571V153.622ZM328.857 156.772C329.071 156.667 329.179 156.562 329.179 156.405C329.179 156.247 329.071 156.142 328.857 156.037C328.643 155.932 328.375 155.932 328.054 155.932C327.732 155.932 327.411 155.985 327.25 156.037C327.036 156.142 326.929 156.247 326.929 156.405C326.929 156.562 327.036 156.667 327.25 156.772C327.464 156.877 327.732 156.877 328.054 156.877C328.375 156.93 328.643 156.877 328.857 156.772ZM330.036 153.255H330.464V153.937H329.821V155.407H329.018V152.1H329.821V153.255H330.036Z" fill="white"/>
<path d="M333.196 156.877V157.297H332.393V155.617H331V154.935H333.679C333.893 154.935 334.054 154.935 334.268 154.882C334.482 154.882 334.643 154.83 334.75 154.83V155.46C334.536 155.512 334.321 155.512 334.054 155.512C333.786 155.512 333.464 155.565 333.196 155.565V156.877ZM331.536 152.887C331.589 152.73 331.696 152.625 331.804 152.52C331.911 152.415 332.071 152.31 332.232 152.257C332.393 152.205 332.607 152.152 332.821 152.152C333.036 152.152 333.25 152.205 333.411 152.257C333.571 152.31 333.732 152.415 333.839 152.52C333.946 152.625 334.054 152.782 334.107 152.887C334.161 153.045 334.214 153.202 334.214 153.36C334.214 153.517 334.161 153.675 334.107 153.832C334.054 153.99 333.946 154.095 333.839 154.2C333.732 154.305 333.571 154.41 333.411 154.462C333.25 154.515 333.036 154.567 332.821 154.567C332.607 154.567 332.393 154.515 332.232 154.462C332.071 154.41 331.911 154.305 331.804 154.2C331.696 154.095 331.589 153.99 331.536 153.832C331.482 153.675 331.429 153.517 331.429 153.36C331.429 153.202 331.482 153.045 331.536 152.887ZM332.393 153.727C332.5 153.832 332.661 153.885 332.875 153.885C333.089 153.885 333.25 153.832 333.357 153.727C333.464 153.622 333.518 153.465 333.518 153.307C333.518 153.15 333.464 153.045 333.357 152.887C333.25 152.782 333.089 152.677 332.875 152.677C332.661 152.677 332.5 152.73 332.393 152.887C332.286 152.992 332.232 153.15 332.232 153.307C332.232 153.57 332.286 153.622 332.393 153.727ZM335.768 157.035V157.402H334.911V152.047H335.768V157.035Z" fill="white"/>
<path d="M337.214 153.412H336.679V152.835H340.054V153.412H337.214ZM336.946 154.095C337 153.99 337.107 153.885 337.268 153.832C337.375 153.78 337.536 153.727 337.75 153.675C337.911 153.622 338.125 153.622 338.339 153.622C338.821 153.622 339.143 153.675 339.411 153.832C339.679 153.99 339.839 154.2 339.839 154.41C339.839 154.672 339.679 154.83 339.411 154.987C339.143 155.145 338.768 155.25 338.339 155.25C338.125 155.25 337.911 155.25 337.75 155.197L337.268 155.04C337.161 154.987 337.054 154.882 336.946 154.777C336.893 154.672 336.839 154.567 336.839 154.462C336.839 154.305 336.893 154.2 336.946 154.095ZM337.911 152.625H337.482V152.047H339.25V152.625H337.911ZM337.536 157.35V155.775C337.536 155.67 337.536 155.617 337.482 155.512H341.446V157.35H337.536ZM337.857 154.672C337.964 154.725 338.179 154.777 338.393 154.777C338.607 154.777 338.768 154.725 338.875 154.672C338.982 154.62 339.089 154.515 339.089 154.41C339.089 154.305 339.036 154.252 338.929 154.2C338.821 154.147 338.661 154.095 338.446 154.095C338.232 154.095 338.071 154.147 337.911 154.2C337.804 154.252 337.696 154.357 337.696 154.462C337.643 154.515 337.75 154.62 337.857 154.672ZM340.643 156.195H338.339V156.772H340.643V156.195ZM340.321 154.357H340V153.675H340.75V152.047H341.554V155.302H340.804V154.305L340.321 154.357Z" fill="white"/>
<path d="M338.446 171V170.475H331V171H338.446ZM338.393 171.525C338.393 171.735 338.339 171.893 338.339 172.05H331.107C331.107 171.893 331.054 171.735 331.054 171.525H338.393ZM338.5 169.95V169.635V169.425H331V169.95H338.5ZM338.446 168.9C338.446 168.69 338.393 168.533 338.393 168.375H331.107C331.054 168.533 331.054 168.69 331.054 168.9H338.446ZM336.625 163.125C336.732 163.283 336.786 163.44 336.839 163.65H332.661C332.714 163.44 332.768 163.283 332.875 163.125H336.625ZM336.196 162.6C335.821 162.285 335.339 162.075 334.75 162.075C334.161 162.075 333.732 162.285 333.304 162.6H336.196ZM336.893 164.175C336.893 164.333 336.839 164.543 336.839 164.7H332.714C332.661 164.543 332.661 164.333 332.661 164.175H336.893ZM336.571 165.225C336.464 165.435 336.304 165.593 336.089 165.75H333.304C333.143 165.593 332.982 165.435 332.821 165.225H336.571ZM336.893 166.275C337.214 166.38 337.482 166.59 337.696 166.8H331.804C332.018 166.59 332.286 166.38 332.607 166.275H336.893ZM338.071 167.325C338.179 167.483 338.232 167.64 338.286 167.85H331.214C331.268 167.64 331.321 167.483 331.429 167.325H338.071Z" fill="white"/>
<path d="M328.857 167.64C329.661 167.273 330.25 166.433 330.25 165.488C330.25 164.175 329.179 163.125 327.786 163.125C326.393 163.125 325.321 164.175 325.321 165.488C325.321 166.433 325.911 167.273 326.714 167.64C324.679 167.903 323.5 169.058 323.5 171.788C323.5 174.938 325.107 174.675 327.786 174.675C330.464 174.675 332.071 174.938 332.071 171.788C332.071 169.058 330.893 167.903 328.857 167.64Z" fill="white"/>
<path d="M328.054 159.188L330.464 161.55" stroke="white" stroke-miterlimit="10"/>
<path d="M330.196 159.188L331.536 160.5" stroke="white" stroke-miterlimit="10"/>
<rect width="28" height="98" transform="translate(66 42)" fill="#343434" fill-opacity="0.85"/>
<rect x="66" y="42" width="28" height="98" fill="#838383" fill-opacity="0.85"/>
<rect width="28" height="98" transform="translate(107.5 42)" fill="#343434" fill-opacity="0.85"/>
<rect x="107.5" y="42" width="28" height="98" fill="#838383" fill-opacity="0.85"/>
<rect width="28" height="98" transform="translate(149 42)" fill="#343434" fill-opacity="0.85"/>
<rect x="149" y="42" width="28" height="98" fill="#838383" fill-opacity="0.85"/>
<rect width="28" height="98" transform="translate(190.5 42)" fill="#343434" fill-opacity="0.85"/>
<rect x="190.5" y="42" width="28" height="98" fill="#838383" fill-opacity="0.85"/>
<rect width="28" height="98" transform="translate(232 42)" fill="#343434" fill-opacity="0.85"/>
<rect x="232" y="42" width="28" height="98" fill="#838383" fill-opacity="0.85"/>
<rect width="28" height="98" transform="translate(273.5 42)" fill="#343434" fill-opacity="0.85"/>
<rect x="273.5" y="42" width="28" height="98" fill="#838383" fill-opacity="0.85"/>
<rect width="28" height="98" transform="translate(315 42)" fill="#343434" fill-opacity="0.85"/>
<rect x="315" y="42" width="28" height="98" fill="#838383" fill-opacity="0.85"/>
</svg>
