<svg width="32" height="32" viewBox="0 0 32 32" fill="none" xmlns="http://www.w3.org/2000/svg">
<circle cx="16" cy="16" r="16" fill="#3AA75B"/>
<path d="M13.2635 9.975V10.444H14.5235V12.845H15.1045V8.246H14.5235V9.975H13.2635ZM13.6345 11.452C12.7245 11.13 12.1085 10.346 12.1085 9.527V9.219H13.4875V8.75H10.1345V9.219H11.5345V9.534C11.5345 10.423 10.8835 11.256 9.95255 11.592L10.2535 12.04C10.9885 11.774 11.5625 11.193 11.8355 10.479C12.1085 11.123 12.6475 11.648 13.3475 11.9L13.6345 11.452ZM11.6675 13.909V12.439H11.0865V14.378H15.2795V13.909H11.6675ZM18.198 9.87H19.36V9.394H18.205V8.463H17.652V9.394H16.49V9.87H17.652V10.171C17.652 11.2 17.169 12.299 16.322 12.803L16.658 13.23C17.274 12.859 17.715 12.159 17.932 11.361C18.163 12.117 18.611 12.754 19.22 13.097L19.549 12.663C18.702 12.208 18.198 11.172 18.198 10.171V9.87ZM19.892 10.717H18.933V11.193H19.892V14.189H20.438V8.386H19.892V10.717ZM21.152 8.239V14.511H21.705V8.239H21.152ZM10.0088 18.92C10.1698 18.094 10.1698 17.471 10.1698 17.058V16.729H7.04782V17.198H9.60982C9.60982 17.597 9.58882 18.136 9.44182 18.857L10.0088 18.92ZM10.6038 19.298C9.96682 19.382 9.25282 19.438 8.56682 19.466V18.129H7.99982V19.487C7.52382 19.494 7.06882 19.501 6.66982 19.501L6.72582 19.97C7.83882 19.97 9.34382 19.935 10.6458 19.718L10.6038 19.298ZM8.20282 20.537H7.62882V22.378H11.8008V21.909H8.20282V20.537ZM11.5978 18.283V16.239H11.0238V20.971H11.5978V18.759H12.4938V18.283H11.5978ZM16.8473 18.983C15.8953 19.151 15.0903 19.186 13.9913 19.186V18.297H16.2383V16.582H13.4103V17.051H15.6713V17.856H13.4243V19.655H13.9213C15.0763 19.655 15.9093 19.62 16.9033 19.452L16.8473 18.983ZM14.6283 20.747H17.4633V21.972H14.6283V20.747ZM14.0683 22.434H18.0233V20.292H14.0683V22.434ZM18.9543 17.849H18.0233V16.246H17.4493V19.984H18.0233V18.325H18.9543V17.849ZM19.9267 16.911V17.387H22.2297C22.0967 18.871 21.2357 20.075 19.6327 20.88L19.9477 21.328C21.9777 20.313 22.7967 18.696 22.7967 16.911H19.9267ZM25.4287 18.787H24.4207V16.239H23.8467V22.518H24.4207V19.263H25.4287V18.787Z" fill="black"/>
</svg>
