<svg width="32" height="32" viewBox="0 0 32 32" fill="none" xmlns="http://www.w3.org/2000/svg">
<circle cx="16" cy="16" r="16" fill="#FC9846"/>
<path d="M11.3413 14H10.7056V9.78564L9.43066 10.2539V9.67969L11.2422 8.99951H11.3413V14ZM13.4844 11.5049L13.7373 9.02344H16.2871V9.60791H14.2739L14.1235 10.9648C14.3674 10.8213 14.6442 10.7495 14.9541 10.7495C15.4076 10.7495 15.7676 10.8999 16.0342 11.2007C16.3008 11.4992 16.4341 11.9036 16.4341 12.4141C16.4341 12.9268 16.2951 13.3312 16.0171 13.6274C15.7414 13.9214 15.3551 14.0684 14.8584 14.0684C14.4186 14.0684 14.0597 13.9465 13.7817 13.7026C13.5037 13.4588 13.3454 13.1216 13.3066 12.6909H13.9048C13.9435 12.9757 14.0449 13.1911 14.209 13.3369C14.373 13.4805 14.5895 13.5522 14.8584 13.5522C15.1523 13.5522 15.3825 13.452 15.5488 13.2515C15.7174 13.0509 15.8018 12.7741 15.8018 12.4209C15.8018 12.0882 15.7106 11.8216 15.5283 11.6211C15.3483 11.4183 15.1079 11.3169 14.8071 11.3169C14.5314 11.3169 14.3149 11.3773 14.1577 11.498L13.9902 11.6348L13.4844 11.5049ZM18.9439 8.834H18.3909V10.031C18.3909 11.109 17.8729 12.236 17.0119 12.74L17.3689 13.167C17.9919 12.782 18.4469 12.075 18.6709 11.242C18.8949 12.005 19.3149 12.67 19.9099 13.034L20.2389 12.586C19.4129 12.082 18.9439 11.018 18.9439 10.01V8.834ZM20.5959 10.493H19.5599V10.969H20.5959V14.21H21.1349V8.379H20.5959V10.493ZM21.8699 8.239V14.518H22.4159V8.239H21.8699ZM10.0088 18.92C10.1698 18.094 10.1698 17.471 10.1698 17.058V16.729H7.04782V17.198H9.60982C9.60982 17.597 9.58882 18.136 9.44182 18.857L10.0088 18.92ZM10.6038 19.298C9.96682 19.382 9.25282 19.438 8.56682 19.466V18.129H7.99982V19.487C7.52382 19.494 7.06882 19.501 6.66982 19.501L6.72582 19.97C7.83882 19.97 9.34382 19.935 10.6458 19.718L10.6038 19.298ZM8.20282 20.537H7.62882V22.378H11.8008V21.909H8.20282V20.537ZM11.5978 18.283V16.239H11.0238V20.971H11.5978V18.759H12.4938V18.283H11.5978ZM16.8473 18.983C15.8953 19.151 15.0903 19.186 13.9913 19.186V18.297H16.2383V16.582H13.4103V17.051H15.6713V17.856H13.4243V19.655H13.9213C15.0763 19.655 15.9093 19.62 16.9033 19.452L16.8473 18.983ZM14.6283 20.747H17.4633V21.972H14.6283V20.747ZM14.0683 22.434H18.0233V20.292H14.0683V22.434ZM18.9543 17.849H18.0233V16.246H17.4493V19.984H18.0233V18.325H18.9543V17.849ZM19.9267 16.911V17.387H22.2297C22.0967 18.871 21.2357 20.075 19.6327 20.88L19.9477 21.328C21.9777 20.313 22.7967 18.696 22.7967 16.911H19.9267ZM25.4287 18.787H24.4207V16.239H23.8467V22.518H24.4207V19.263H25.4287V18.787Z" fill="black"/>
</svg>
