<svg width="32" height="32" viewBox="0 0 32 32" fill="none" xmlns="http://www.w3.org/2000/svg">
<circle cx="16" cy="16" r="16" fill="#DB2B36"/>
<path d="M10.0508 10.024V10.5H11.3038V12.047H11.8848V8.239H11.3038V10.024H10.0508ZM10.4288 11.333C9.50482 11.06 8.85382 10.36 8.85382 9.576V9.457H10.2398V8.995H8.85382V8.204H8.27982V8.995H6.88682V9.457H8.27982V9.576C8.27982 10.423 7.64982 11.186 6.72582 11.501L7.00582 11.942C7.74782 11.697 8.31482 11.165 8.58082 10.479C8.86782 11.088 9.43482 11.557 10.1558 11.781L10.4288 11.333ZM9.80582 14.063C8.86082 14.063 8.29382 13.797 8.29382 13.356C8.29382 12.922 8.86082 12.656 9.80582 12.656C10.7648 12.656 11.3318 12.922 11.3318 13.356C11.3318 13.797 10.7578 14.063 9.80582 14.063ZM9.80582 12.208C8.51782 12.208 7.71982 12.628 7.71982 13.356C7.71982 14.091 8.51782 14.511 9.80582 14.511C11.1078 14.511 11.9058 14.091 11.9058 13.356C11.9058 12.628 11.1078 12.208 9.80582 12.208ZM18.5693 11.305C17.4703 11.109 16.2733 10.185 16.2733 9.142V8.659H15.6713V9.142C15.6713 10.185 14.4813 11.109 13.3823 11.305L13.6203 11.781C14.5863 11.578 15.5663 10.927 15.9723 10.031C16.3783 10.927 17.3653 11.578 18.3243 11.781L18.5693 11.305ZM16.2593 13.23V11.704H15.6853V13.23H13.1513V13.699H18.8493V13.23H16.2593ZM24.1827 12.894H24.7637V8.246H24.1827V9.058H22.4117V9.52H24.1827V10.262H22.4117V10.717H24.1827V12.894ZM23.1467 11.256C22.2087 11.424 21.3897 11.473 20.5287 11.48V8.694H19.9547V11.963H20.4307C21.3547 11.963 22.2017 11.914 23.2097 11.732L23.1467 11.256ZM21.3127 13.909V12.495H20.7387V14.378H24.9247V13.909H21.3127ZM6.78909 18.92C6.95009 18.094 6.95009 17.471 6.95009 17.058V16.729H3.82809V17.198H6.39009C6.39009 17.597 6.36909 18.136 6.22209 18.857L6.78909 18.92ZM7.38409 19.298C6.74709 19.382 6.03309 19.438 5.34709 19.466V18.129H4.78009V19.487C4.30409 19.494 3.84909 19.501 3.45009 19.501L3.50609 19.97C4.61909 19.97 6.12409 19.935 7.42609 19.718L7.38409 19.298ZM4.98309 20.537H4.40909V22.378H8.58109V21.909H4.98309V20.537ZM8.37809 18.283V16.239H7.80409V20.971H8.37809V18.759H9.27409V18.283H8.37809ZM13.6275 18.983C12.6755 19.151 11.8705 19.186 10.7715 19.186V18.297H13.0185V16.582H10.1905V17.051H12.4515V17.856H10.2045V19.655H10.7015C11.8565 19.655 12.6895 19.62 13.6835 19.452L13.6275 18.983ZM11.4085 20.747H14.2435V21.972H11.4085V20.747ZM10.8485 22.434H14.8035V20.292H10.8485V22.434ZM15.7345 17.849H14.8035V16.246H14.2295V19.984H14.8035V18.325H15.7345V17.849ZM20.739 17.968H17.687V17.366H20.739V17.968ZM21.306 16.337H20.739V16.932H17.687V16.337H17.12V18.409H21.306V16.337ZM22.048 19.382V18.92H16.364V19.382H18.919V19.998H17.05V20.432H20.753V20.978H17.071V22.448H21.509V22.007H17.631V21.398H21.32V19.998H19.493V19.382H22.048ZM23.1465 16.911V17.387H25.4495C25.3165 18.871 24.4555 20.075 22.8525 20.88L23.1675 21.328C25.1975 20.313 26.0165 18.696 26.0165 16.911H23.1465ZM28.6485 18.787H27.6405V16.239H27.0665V22.518H27.6405V19.263H28.6485V18.787Z" fill="white"/>
</svg>
