<svg width="32" height="32" viewBox="0 0 32 32" fill="none" xmlns="http://www.w3.org/2000/svg">
<circle cx="16" cy="16" r="16" fill="#E2E2E2"/>
<path d="M14.6875 14H14.0278L11.5225 10.165V14H10.8628V9.02344H11.5225L14.0347 12.8755V9.02344H14.6875V14ZM17.5084 8.834H16.9554V10.031C16.9554 11.109 16.4374 12.236 15.5764 12.74L15.9334 13.167C16.5564 12.782 17.0114 12.075 17.2354 11.242C17.4594 12.005 17.8794 12.67 18.4744 13.034L18.8034 12.586C17.9774 12.082 17.5084 11.018 17.5084 10.01V8.834ZM19.1604 10.493H18.1244V10.969H19.1604V14.21H19.6994V8.379H19.1604V10.493ZM20.4344 8.239V14.518H20.9804V8.239H20.4344ZM10.0088 18.92C10.1698 18.094 10.1698 17.471 10.1698 17.058V16.729H7.04782V17.198H9.60982C9.60982 17.597 9.58882 18.136 9.44182 18.857L10.0088 18.92ZM10.6038 19.298C9.96682 19.382 9.25282 19.438 8.56682 19.466V18.129H7.99982V19.487C7.52382 19.494 7.06882 19.501 6.66982 19.501L6.72582 19.97C7.83882 19.97 9.34382 19.935 10.6458 19.718L10.6038 19.298ZM8.20282 20.537H7.62882V22.378H11.8008V21.909H8.20282V20.537ZM11.5978 18.283V16.239H11.0238V20.971H11.5978V18.759H12.4938V18.283H11.5978ZM16.8473 18.983C15.8953 19.151 15.0903 19.186 13.9913 19.186V18.297H16.2383V16.582H13.4103V17.051H15.6713V17.856H13.4243V19.655H13.9213C15.0763 19.655 15.9093 19.62 16.9033 19.452L16.8473 18.983ZM14.6283 20.747H17.4633V21.972H14.6283V20.747ZM14.0683 22.434H18.0233V20.292H14.0683V22.434ZM18.9543 17.849H18.0233V16.246H17.4493V19.984H18.0233V18.325H18.9543V17.849ZM19.9267 16.911V17.387H22.2297C22.0967 18.871 21.2357 20.075 19.6327 20.88L19.9477 21.328C21.9777 20.313 22.7967 18.696 22.7967 16.911H19.9267ZM25.4287 18.787H24.4207V16.239H23.8467V22.518H24.4207V19.263H25.4287V18.787Z" fill="black"/>
</svg>
