<svg width="32" height="32" viewBox="0 0 32 32" fill="none" xmlns="http://www.w3.org/2000/svg">
<circle cx="16" cy="16" r="16" fill="#00A7D8"/>
<path d="M11.4233 14H10.5962V10.0044L9.37598 10.4214V9.7207L11.3174 9.00635H11.4233V14ZM16.499 14H13.1528V13.4292L14.8105 11.6211C15.0498 11.3545 15.2196 11.1323 15.3198 10.9546C15.4224 10.7746 15.4736 10.5946 15.4736 10.4146C15.4736 10.1776 15.4064 9.98617 15.272 9.84033C15.1398 9.6945 14.9609 9.62158 14.7354 9.62158C14.4665 9.62158 14.258 9.70361 14.1099 9.86768C13.9618 10.0317 13.8877 10.2562 13.8877 10.541H13.0571C13.0571 10.238 13.1255 9.96566 13.2622 9.72412C13.4012 9.48031 13.5983 9.29118 13.8535 9.15674C14.111 9.0223 14.4072 8.95508 14.7422 8.95508C15.2253 8.95508 15.6058 9.07699 15.8838 9.3208C16.1641 9.56234 16.3042 9.8973 16.3042 10.3257C16.3042 10.5741 16.2336 10.835 16.0923 11.1084C15.9533 11.3796 15.7243 11.6883 15.4053 12.0347L14.1885 13.3369H16.499V14ZM18.9918 8.834H18.4388V10.031C18.4388 11.109 17.9208 12.236 17.0598 12.74L17.4168 13.167C18.0398 12.782 18.4948 12.075 18.7188 11.242C18.9428 12.005 19.3628 12.67 19.9578 13.034L20.2868 12.586C19.4608 12.082 18.9918 11.018 18.9918 10.01V8.834ZM20.6438 10.493H19.6078V10.969H20.6438V14.21H21.1828V8.379H20.6438V10.493ZM21.9178 8.239V14.518H22.4638V8.239H21.9178ZM10.0088 18.92C10.1698 18.094 10.1698 17.471 10.1698 17.058V16.729H7.04782V17.198H9.60982C9.60982 17.597 9.58882 18.136 9.44182 18.857L10.0088 18.92ZM10.6038 19.298C9.96682 19.382 9.25282 19.438 8.56682 19.466V18.129H7.99982V19.487C7.52382 19.494 7.06882 19.501 6.66982 19.501L6.72582 19.97C7.83882 19.97 9.34382 19.935 10.6458 19.718L10.6038 19.298ZM8.20282 20.537H7.62882V22.378H11.8008V21.909H8.20282V20.537ZM11.5978 18.283V16.239H11.0238V20.971H11.5978V18.759H12.4938V18.283H11.5978ZM16.8473 18.983C15.8953 19.151 15.0903 19.186 13.9913 19.186V18.297H16.2383V16.582H13.4103V17.051H15.6713V17.856H13.4243V19.655H13.9213C15.0763 19.655 15.9093 19.62 16.9033 19.452L16.8473 18.983ZM14.6283 20.747H17.4633V21.972H14.6283V20.747ZM14.0683 22.434H18.0233V20.292H14.0683V22.434ZM18.9543 17.849H18.0233V16.246H17.4493V19.984H18.0233V18.325H18.9543V17.849ZM19.9267 16.911V17.387H22.2297C22.0967 18.871 21.2357 20.075 19.6327 20.88L19.9477 21.328C21.9777 20.313 22.7967 18.696 22.7967 16.911H19.9267ZM25.4287 18.787H24.4207V16.239H23.8467V22.518H24.4207V19.263H25.4287V18.787Z" fill="black"/>
</svg>
