<svg width="12" height="14" viewBox="0 0 12 14" fill="none" xmlns="http://www.w3.org/2000/svg">
<path fill-rule="evenodd" clip-rule="evenodd" d="M0.75 12.5263H11.25C11.4489 12.5263 11.6397 12.6039 11.7803 12.7421C11.921 12.8803 12 13.0677 12 13.2632C12 13.4586 11.921 13.646 11.7803 13.7842C11.6397 13.9224 11.4489 14 11.25 14H0.75C0.551088 14 0.360322 13.9224 0.21967 13.7842C0.0790178 13.646 0 13.4586 0 13.2632C0 13.0677 0.0790178 12.8803 0.21967 12.7421C0.360322 12.6039 0.551088 12.5263 0.75 12.5263ZM6.75 8.23421L9.18225 5.84537L10.2428 6.88726L6 11.0556L1.75725 6.88726L2.81775 5.84537L5.25 8.23421V0H6.75V8.23421Z" fill="white"/>
</svg>
